<svg width="200" height="50" viewBox="0 0 200 50" fill="none" xmlns="http://www.w3.org/2000/svg">
<g clip-path="url(#clip0_914_6052)">
<path d="M18.9868 11.8869C18.2745 11.1687 17.4318 10.6221 16.5132 10.2825C15.5947 9.94289 14.6209 9.81785 13.6552 9.91553H13.5357C12.1694 9.8834 10.8211 10.261 9.63788 11.0071C8.83083 11.5628 8.06665 12.1894 7.35293 12.8807V0.0751953H-0.21875V39.8927H7.00944C7.00944 39.8927 7.15878 39.127 7.21852 38.8501C7.82139 39.278 8.46793 39.6279 9.14505 39.8927C10.1696 40.2409 11.238 40.4113 12.3111 40.3978C14.7454 40.3978 22.1379 40.3978 22.1379 24.9042C22.1379 18.3874 21.1224 14.2329 19.0166 11.8705L18.9868 11.8869ZM14.3273 25.067C14.4536 27.1412 14.045 29.2125 13.1475 31.0462C12.7801 31.6594 12.2696 32.1546 11.6685 32.4811C11.0674 32.8076 10.3974 32.9534 9.72748 32.9035L8.23406 32.7732C7.7711 32.7732 7.32307 32.5125 7.32307 31.4861V19.984C7.32307 18.9412 8.05485 18.5177 8.81649 18.2082C9.36436 17.9762 9.94629 17.8547 10.5339 17.8497C11.1099 17.7893 11.6891 17.9203 12.1956 18.2255C12.702 18.5309 13.112 18.9962 13.3714 19.5604C14.0238 21.3111 14.3194 23.1957 14.2377 25.0834" fill="#DDB308"/>
<path d="M68.626 11.8869C67.9104 11.1692 67.065 10.623 66.1442 10.2834C65.2233 9.94392 64.2475 9.81858 63.2795 9.91553H63.175C61.8086 9.8834 60.4604 10.261 59.2772 11.0071C58.465 11.5547 57.7002 12.1819 56.9922 12.8807V0.0751953H49.3906V39.8927H56.6189C56.6189 39.8927 56.7681 39.127 56.813 38.85C57.421 39.2783 58.0725 39.6282 58.7545 39.8927C59.7787 40.2423 60.8473 40.4127 61.9205 40.3978C64.3548 40.3978 71.7473 40.3978 71.7473 24.9041C71.7473 18.3874 70.7168 14.2329 68.626 11.8705V11.8869ZM63.9964 25.0834C64.1301 27.158 63.7209 29.2316 62.8166 31.0625C62.4503 31.6769 61.9401 32.1732 61.3386 32.4998C60.7373 32.8263 60.0668 32.9713 59.3966 32.9198L57.9778 32.7894C57.5149 32.7894 57.0669 32.5287 57.0669 31.5024V19.984C57.0669 18.9412 57.7986 18.5177 58.5603 18.2082C59.1078 17.9748 59.69 17.8533 60.2777 17.8497C60.8519 17.788 61.4296 17.9187 61.9339 18.2243C62.4381 18.53 62.845 18.996 63.1003 19.5603C63.7709 21.306 64.077 23.1926 63.9964 25.0834Z" fill="#DDB308"/>
<path d="M43.0882 12.1969C41.3409 10.5677 38.6079 9.7042 34.7101 9.7042C33.1099 9.69927 31.5134 9.87398 29.946 10.2255C28.7898 10.4448 27.6475 10.7441 26.526 11.1216L26.1527 11.2519V18.9581H27.3773L30.0804 17.6873C31.101 17.2095 32.196 16.9496 33.3062 16.9216C34.6044 16.8309 35.9016 17.1117 37.0697 17.7361C37.4178 17.9982 37.6991 18.3524 37.8873 18.7657C38.0754 19.1789 38.164 19.6376 38.145 20.0985C36.4126 20.2614 34.7101 20.4569 33.0972 20.7339C31.4736 20.9767 29.9016 21.5281 28.4526 22.3631C27.1953 23.1202 26.1599 24.2499 25.4657 25.6215C24.7074 27.2543 24.3425 29.0709 24.4054 30.9C24.3274 33.3333 25.0654 35.714 26.4812 37.596C27.1152 38.4367 27.9138 39.1117 28.8184 39.5712C29.723 40.0308 30.7105 40.2633 31.7083 40.2516C32.5183 40.2909 33.3299 40.2308 34.1276 40.0724C34.8712 39.8739 35.5852 39.5611 36.2483 39.1437C36.7827 38.7678 37.2828 38.3369 37.7417 37.8567L38.1599 37.4331V39.6489H45.7614V20.0985C45.8776 18.6478 45.6981 17.1871 45.2359 15.8211C44.7737 14.455 44.0403 13.2174 43.0882 12.1969ZM36.0989 25.5562C36.6664 25.4423 37.5924 25.2467 37.9807 25.5562C37.9807 25.5562 38.1599 25.7192 38.1599 26.1591V30.1181C38.0971 30.6158 37.9296 31.091 37.6705 31.5065C37.4114 31.9219 37.0678 32.2664 36.6664 32.5129C36.1499 32.8621 35.5566 33.0535 34.949 33.0668C34.409 33.102 33.8676 33.0303 33.351 32.8551C33.0475 32.6994 32.779 32.4727 32.5648 32.1911C32.3506 31.9096 32.1958 31.58 32.1114 31.2259L32.007 29.5967C31.973 28.8329 32.1278 28.0734 32.455 27.3973C32.7497 26.8544 33.1939 26.4268 33.7244 26.1753C34.434 25.8571 35.1761 25.6329 35.9347 25.5074L36.0989 25.5562Z" fill="#DDB308"/>
<path d="M96.9574 10.8271L85.3534 50.0744H77.0948L80.5446 38.8818C80.44 38.5398 72.5547 10.8271 72.5547 10.8271H80.5446L84.9054 27.1191C85.6969 24.0563 89.0571 10.8271 89.0571 10.8271" fill="#DDB308"/>
<path d="M122.882 0.645508H115.281V40.3979H122.882V0.645508Z" fill="#DDB308"/>
<path d="M147.526 13.549C146.434 12.2317 145.101 11.1788 143.613 10.4582C142.125 9.73755 140.514 9.36523 138.886 9.36523C137.258 9.36523 135.649 9.73755 134.16 10.4582C132.673 11.1788 131.339 12.2317 130.248 13.549C128.09 16.8131 127.035 20.7906 127.26 24.8067C127.049 28.8111 128.103 32.7738 130.248 36.0319C131.336 37.351 132.669 38.4058 134.155 39.1277C135.643 39.8497 137.252 40.2227 138.879 40.2227C140.507 40.2227 142.117 39.8497 143.603 39.1277C145.09 38.4058 146.422 37.351 147.511 36.0319C149.662 32.7773 150.718 28.812 150.498 24.8067C150.704 20.8031 149.651 16.8427 147.511 13.5816L147.526 13.549ZM135.339 20.75C135.497 19.8817 135.789 19.0493 136.206 18.29C136.499 17.7931 136.905 17.3885 137.386 17.1169C137.856 16.8944 138.366 16.7888 138.879 16.8074C139.395 16.815 139.902 16.9369 140.373 17.1658C140.858 17.4531 141.261 17.8817 141.537 18.404C141.951 19.1619 142.234 19.9955 142.374 20.8641C142.608 22.1788 142.719 23.5164 142.703 24.8556C142.735 26.2056 142.63 27.5552 142.388 28.8798C142.225 29.7228 141.927 30.528 141.508 31.2583C141.234 31.7561 140.835 32.1576 140.358 32.4151C139.893 32.6593 139.381 32.7821 138.864 32.7735C138.31 32.789 137.761 32.6547 137.266 32.3825C136.777 32.1042 136.364 31.688 136.072 31.1769C135.664 30.4058 135.386 29.5617 135.25 28.6842C135.038 27.4159 134.938 26.1284 134.952 24.8393C134.93 23.4613 135.045 22.0847 135.295 20.7338" fill="#DDB308"/>
<path d="M172.822 29.6937L173.643 29.0583V37.5627L173.39 37.7256C172.338 38.4 171.22 38.9464 170.059 39.3548C168.796 39.7783 167.482 39.9872 166.161 39.9739C164.429 40.0031 162.705 39.6998 161.069 39.0779C159.535 38.4821 158.145 37.5127 157.007 36.243C155.823 34.8723 154.927 33.2382 154.379 31.4532C153.728 29.3047 153.415 27.052 153.453 24.7898C153.411 22.4249 153.75 20.0705 154.453 17.8331C155.052 16.0043 156.005 14.3374 157.245 12.9456C158.382 11.7233 159.755 10.7938 161.263 10.2248C162.761 9.65641 164.337 9.36994 165.922 9.37763C167.284 9.36327 168.638 9.57757 169.94 10.013C171.128 10.4138 172.27 10.9603 173.345 11.6422L173.599 11.8052V20.2118L172.733 19.3808C171.963 18.7235 171.12 18.176 170.223 17.7516C168.968 17.1177 167.588 16.8322 166.206 16.9208C165.502 16.9277 164.809 17.1156 164.184 17.4695C163.558 17.8233 163.018 18.3331 162.607 18.9573C161.644 20.7321 161.186 22.7794 161.293 24.8387C161.17 26.876 161.635 28.9041 162.622 30.6386C163.051 31.2537 163.611 31.7446 164.255 32.0683C164.897 32.3922 165.604 32.539 166.311 32.496C167.596 32.5865 168.88 32.2816 170.014 31.6162C171.135 30.9807 172.762 29.7425 172.778 29.7425" fill="#DDB308"/>
<path d="M199.033 39.8927H190.28L185.458 29.5636V39.8927H177.855V0.0751953H185.458V18.2244L189.833 10.8279H198.569C198.569 10.8279 191.282 22.884 190.968 23.4378C191.237 24.008 199.033 39.8438 199.033 39.8438" fill="#DDB308"/>
</g>
<defs>
<clipPath id="clip0_914_6052">
<rect width="200" height="50" fill="white"/>
</clipPath>
</defs>
</svg>
