<svg width="200" height="45" viewBox="0 0 200 45" fill="none" xmlns="http://www.w3.org/2000/svg">
<path d="M5.04649 32.4715L5.79586 33.6742C6.76735 35.0022 7.7904 35.6814 8.88662 35.6814C9.06495 35.6814 9.33243 35.6814 9.68445 35.5456C10.7003 35.3175 11.4131 34.7055 11.896 33.6031C12.3351 32.5306 12.5593 30.8251 12.602 28.5261V0.300781H24.2311V29.619C24.2311 34.3431 23.303 38.0968 21.3585 40.8802C19.5005 43.6141 16.8071 44.9424 13.171 44.9998C10.3039 44.9998 7.73421 44.2611 5.47992 42.6961C3.2751 41.1243 1.67844 38.9526 0.62499 36.1725L0.402344 35.4903L4.55739 31.4416L5.04649 32.4715Z" fill="#EF171E"/>
<path d="M40.762 18.2848L37.5741 30.4729H43.8591L40.762 18.2848ZM46.2429 1.93848L59.0244 44.9999H47.7112L46.1628 39.0679H35.1021L33.5613 44.9999H24.4023L37.7089 1.93848H46.2429Z" fill="#EF171E"/>
<path d="M67.6055 1.93848L82.1012 22.351L82.1429 1.93848H90.6344V44.9999H84.5359L68.8928 23.1347V44.9999H60.4023V1.93848H67.6055Z" fill="#EF171E"/>
<path d="M114.776 32.6988C115.66 30.4662 116.102 26.6989 116.102 21.4397C116.102 16.9562 115.66 13.8075 114.69 11.8718C113.803 9.98677 112.473 9.08688 110.657 9.01787C108.98 9.01787 107.739 9.86418 106.907 11.6365C106.019 13.5711 105.579 16.7176 105.536 21.1389C105.536 26.4706 105.927 30.2832 106.769 32.5836C107.569 34.8893 108.849 36.0405 110.614 36.0405C112.473 36.0405 113.853 34.9483 114.776 32.6988ZM123.268 5.99382C126.447 9.98677 128.041 15.3232 128.041 21.9924C128.041 28.8923 126.447 34.4672 123.176 38.6952C119.999 42.8874 115.703 44.9426 110.303 45C105.356 45 101.376 43.0793 98.2786 39.0679C95.2315 35.1278 93.7217 29.9784 93.6836 23.5482C93.6836 16.6642 95.1452 11.0945 98.1055 6.71331C101.2 2.23881 105.356 0 110.657 0C115.882 0 120.082 1.99146 123.268 5.99382Z" fill="#EF171E"/>
<path d="M143.166 1.93848L149.476 24.8335L156.071 1.93848H165.665L170.523 44.9999H160.087L158.196 22.8368L151.917 44.9425H145.015L138.955 22.8977L137.196 44.9999H128.703L133.352 1.93848H143.166Z" fill="#EF171E"/>
<path d="M198.172 1.93848V11.5721H185.694V18.4712H196.003V27.2525H185.694V35.4904H199.359V44.9999H174.156V1.93848H198.172Z" fill="#EF171E"/>
</svg>
