<svg width="200" height="50" viewBox="0 0 200 50" fill="none" xmlns="http://www.w3.org/2000/svg">
<path d="M42.7134 1.45863H36.2656V36.7878H42.7134V16.9547C42.7134 12.0949 45.6881 8.10745 49.4244 7.83343V0.428711C47.1504 0.59249 44.5392 2.06651 43.4402 3.84918L42.7134 5.03029V1.45863Z" fill="#007CC3"/>
<path d="M16.1634 0.407227C13.2997 0.407227 9.49802 2.43872 7.68973 4.93006L6.98897 5.90329V1.45605H0.539062V49.5915H6.98897V32.2057L7.70932 33.3363C9.28702 35.8151 13.0777 37.834 16.1634 37.834C24.4957 37.834 31.272 29.4057 31.272 19.0497C31.272 8.77258 24.4957 0.407227 16.1634 0.407227ZM15.763 30.3632C10.9234 30.3632 6.98897 25.3207 6.98897 19.1222C6.98897 12.9238 10.8995 7.88439 15.7087 7.88439C20.5787 7.88439 24.5414 12.9269 24.5414 19.1222C24.5414 25.3175 20.6027 30.3632 15.763 30.3632Z" fill="#007CC3"/>
<path d="M188.271 18.9289L197.846 1.45801H190.506L184.828 13.2501L179.149 1.45801H171.781L180.862 18.9289L170.855 36.7871H178.479L184.828 24.6327L191.178 36.7871H198.773L188.271 18.9289Z" fill="#007CC3"/>
<path d="M67.7006 0.410156C59.2116 0.410156 52.3047 8.74401 52.3047 18.9833C52.3047 29.377 59.2116 37.8369 67.7006 37.8369C73.7958 37.8369 79.3471 33.6039 81.7538 27.2133H73.9024C72.4466 29.2794 69.7679 30.3629 67.8137 30.3629C64.5888 30.3629 60.8524 27.27 59.4837 23.459L59.166 22.5802H82.6568C82.8875 21.6321 83.0399 20.4353 83.0399 19.4748C83.0399 8.60858 76.4463 0.410156 67.7006 0.410156ZM59.2965 16.155L59.4531 15.3833C60.3083 11.1787 63.9533 7.88417 67.7571 7.88417C71.685 7.88417 75.3821 11.1818 76.1764 15.396L76.3179 16.155H59.2965Z" fill="#007CC3"/>
<path d="M135.98 19.0519C135.98 29.581 142.62 37.8361 151.091 37.8361C154.177 37.8361 157.968 35.8173 159.546 33.3385L160.268 32.2079V36.7842H166.716V1.45822H160.268V5.89917L159.565 4.92909C157.757 2.43774 153.955 0.40625 151.091 0.40625C142.62 0.4094 135.98 8.59838 135.98 19.0519ZM160.268 19.1243C160.268 25.3227 156.33 30.3654 151.491 30.3654C146.65 30.3654 142.713 25.3227 142.713 19.1243C142.713 12.9259 146.626 7.88656 151.435 7.88656C156.305 7.88342 160.268 12.9259 160.268 19.1243Z" fill="#007CC3"/>
<path d="M120.092 0.410156C116.797 0.410156 112.937 2.50779 111.484 5.08732L111.1 5.76449L110.8 5.00544C109.796 2.47315 106.004 0.410156 102.344 0.410156C99.6608 0.410156 96.479 1.95661 95.2536 3.85897L94.5336 4.97708V1.45897H88.0859V36.7881H94.5336V15.7645C94.5336 11.4212 97.2208 7.88732 100.524 7.88732C103.828 7.88732 106.515 11.4212 106.515 15.7645V36.7881H112.963V15.7645C112.963 11.4212 115.648 7.88732 118.952 7.88732C122.257 7.88732 124.943 11.4212 124.943 15.7645V36.7881H131.164V13.8054C131.164 6.42275 126.195 0.410156 120.092 0.410156Z" fill="#007CC3"/>
</svg>
