<svg width="200" height="50" viewBox="0 0 200 50" fill="none" xmlns="http://www.w3.org/2000/svg">
<path d="M11.0594 11.4685C10.8254 11.5634 10.6016 11.7086 10.3945 11.8999C9.95778 12.2623 9.51416 12.6069 9.07164 12.9463C8.73492 13.1949 8.35396 13.2676 7.98748 13.1531C7.78686 13.101 7.59526 12.9873 7.42427 12.819C7.25321 12.6506 7.10632 12.4312 6.99246 12.1738C6.89362 11.9707 6.83041 11.7325 6.80877 11.4817C6.78713 11.2308 6.80779 10.9757 6.86877 10.7405C6.9298 10.5053 7.02911 10.2977 7.15737 10.1374C7.28563 9.97717 7.4386 9.86948 7.60174 9.8246C7.80195 9.78106 8.00604 9.83064 8.18748 9.96687C8.36891 10.1031 8.51922 10.3196 8.61874 10.5882C8.62686 10.613 8.61184 10.6519 8.60604 10.689C8.50174 10.8003 8.41144 10.6183 8.24113 10.6713C8.19778 10.6924 8.15526 10.7172 8.11369 10.7455C8.05116 10.788 7.99785 10.8428 7.93997 10.8852C7.75812 11.6187 8.0558 12.2056 8.53649 12.0978C8.65034 12.0663 8.76147 12.0154 8.86782 11.9458C9.35198 11.6648 9.83389 11.3731 10.3192 11.0955C10.5022 10.9912 10.691 10.9187 10.8787 10.8304C10.9355 10.8056 10.9945 10.8003 11.0189 10.7013C10.7061 10.5157 10.4582 10.2382 10.4072 9.71146C10.2914 9.32612 9.97635 9.33141 9.82809 8.92485C9.84099 8.48194 9.7672 8.04316 9.61608 7.66448C9.65082 7.39758 9.67751 7.16778 9.79335 7.00162C9.90918 6.83546 9.87785 6.59683 9.99717 6.41476C10.2451 6.16551 10.552 6.08951 10.8613 6.04353C11.1609 5.81091 11.4238 5.48158 11.6316 5.07839C11.7144 4.90653 11.8207 4.76412 11.9431 4.66098C12.0655 4.55783 12.2011 4.49639 12.3405 4.48091C12.5163 4.48008 12.685 4.37483 12.8108 4.18748C12.901 4.03673 13.0155 3.92473 13.143 3.86271C13.2705 3.80066 13.4063 3.79076 13.5371 3.83394C13.6694 3.85596 13.8033 3.83455 13.9297 3.77114C14.0562 3.70773 14.1723 3.60378 14.2703 3.46626C14.2874 3.43823 14.3018 3.40669 14.3131 3.37258C14.2598 2.9481 14.2466 2.51414 14.2738 2.08394C14.4128 1.51297 14.6873 1.32207 15.0256 1.23368C15.4576 1.27964 15.7391 1.69682 15.9638 2.2395C16.0173 2.35141 16.065 2.46962 16.1063 2.59303C16.1351 2.71139 16.1832 2.81662 16.246 2.89885C16.3089 2.9811 16.3844 3.03764 16.4654 3.06323C16.5759 3.04785 16.6781 2.96733 16.7503 2.83873C16.7573 2.79455 16.7712 2.75741 16.7665 2.72737C16.6507 2.04859 16.7665 1.64733 17.1789 1.35742C17.4418 1.18065 17.6862 0.942022 17.9492 0.761719H17.9434C17.9677 1.16474 18.0037 1.56778 18.0129 1.97081C18.028 2.67787 17.8426 3.03141 17.3874 3.22587C17.357 3.2436 17.3279 3.2661 17.3004 3.29303C17.2422 3.47821 17.2308 3.68964 17.2682 3.88696C17.429 4.20546 17.6471 4.44562 17.8959 4.57814C18.1461 4.72839 18.3847 4.90162 18.5364 5.25162C18.643 6.19733 18.3674 6.76828 17.7441 6.94151C17.5959 6.98216 17.4476 7.00691 17.2716 7.04758C17.2287 7.89606 17.0989 8.73394 17.2345 9.60187C17.2658 9.80844 17.3243 10.0031 17.4065 10.1739C17.4888 10.3447 17.5931 10.4881 17.7129 10.5953C17.9041 10.7721 18.0882 10.94 18.1601 11.2918C18.2435 11.6966 18.328 12.0978 18.2561 12.5292C18.2318 12.6811 18.2237 12.8385 18.2006 13.0595C18.0105 12.6511 17.9468 12.1315 17.5982 11.9988C17.5569 12.0642 17.5292 12.1467 17.5185 12.236C17.5077 12.3253 17.5146 12.4174 17.538 12.5008C17.5746 12.7588 17.6214 13.0133 17.6781 13.2627C17.7533 13.5443 17.7608 13.8575 17.699 14.1466C17.5275 14.8536 17.6306 15.4953 17.8947 16.1034C17.969 16.2511 18.0234 16.4198 18.0548 16.5997C18.0862 16.7796 18.094 16.9671 18.0777 17.1517C18.0733 17.1859 18.0658 17.2192 18.0558 17.2506C18.0558 17.263 18.036 17.2683 18.0071 17.2912C17.8728 17.1605 17.7754 16.9183 17.5935 16.7857C17.3353 16.8458 17.0989 16.5824 16.8441 16.4623C16.785 16.5261 16.74 16.616 16.7152 16.7199C16.6904 16.8239 16.6869 16.9368 16.7052 17.0437C16.7177 17.1651 16.7394 17.2837 16.77 17.3973C16.942 18.0985 16.9535 18.868 16.8024 19.5804C16.6419 20.3801 16.6706 21.2403 16.8834 22.0109C16.8905 22.0375 16.8834 22.0763 16.8766 22.1559C16.7469 22.1284 16.6236 22.0534 16.5171 21.9374C16.4106 21.8214 16.3241 21.6676 16.2649 21.4895C16.1897 21.2809 16.1585 21.021 16.0182 20.8955C15.9753 20.8821 15.9305 20.8937 15.8928 20.928C15.8549 20.9624 15.8271 21.017 15.8144 21.0811C15.7843 21.1775 15.7687 21.2829 15.7687 21.3896C15.7687 21.4963 15.7843 21.6018 15.8144 21.6981C15.9301 22.0428 16.046 22.3893 16.177 22.718C16.4201 23.2985 16.5485 23.9735 16.5465 24.6624C16.5443 24.768 16.5462 24.8737 16.5523 24.979C16.5572 25.1294 16.5892 25.2751 16.6447 25.3999C16.7004 25.5247 16.7772 25.6235 16.8673 25.686C16.9831 25.7744 17.1071 25.8628 17.2379 25.9705C17.1222 26.2233 16.9472 26.218 16.8024 26.2976C16.5877 26.2558 16.3873 26.1103 16.2304 25.8828C16.0736 25.6551 15.9684 25.3572 15.9301 25.0319C15.9083 24.8497 15.8505 24.6819 15.7645 24.551C15.7267 24.5326 15.688 24.519 15.6487 24.5105C15.6129 24.5137 15.5775 24.5237 15.5434 24.5405C15.38 25.1433 15.7437 25.3697 15.9163 25.7372C15.9973 26.5133 16.1156 27.2858 16.1387 28.0812C16.1562 28.3105 16.2148 28.5283 16.3078 28.7105C16.5046 29.169 16.7325 29.5945 16.9877 29.9797C17.2083 30.3003 17.3943 30.672 17.5392 31.081C17.7441 31.6678 17.9735 32.2458 18.0824 32.9033C18.1068 33.0572 18.1439 33.2055 18.1809 33.386C18.6986 33.5203 19.1828 33.4515 19.6126 32.9176C19.6727 32.8497 19.7228 32.763 19.7594 32.6633C19.7959 32.5637 19.8181 32.4533 19.8245 32.3395C19.8796 31.6162 19.8065 30.8837 19.6126 30.2183C19.4822 29.7862 19.3661 29.3445 19.2652 28.8942C19.2358 28.7603 19.1969 28.6317 19.1493 28.5108C18.8785 27.811 18.6352 27.0874 18.4207 26.3435C18.0847 25.1769 17.8241 23.9697 17.8843 22.665C17.9198 21.763 18.1157 20.8928 18.4508 20.1478C18.574 19.9105 18.7074 19.686 18.8503 19.4761C18.8574 19.4076 18.8574 19.3378 18.8503 19.2693C18.6348 18.3077 18.7022 17.3107 18.7206 16.3279C18.7311 15.7781 18.9095 15.2849 19.0589 14.7847C19.3589 13.7753 19.8871 13.0966 20.4662 12.5115C20.6875 12.2887 20.9853 12.2322 21.2527 12.1226C22.0116 11.8132 22.7447 12.0024 23.4536 12.4602C23.6378 12.5804 23.786 12.8349 23.946 13.0382C24.0513 13.1726 24.1463 13.3281 24.2552 13.4873C24.4102 13.4145 24.5715 13.3787 24.7336 13.3811C25.3903 13.2963 25.8027 13.8196 26.0784 14.6556C26.164 14.9424 26.2368 15.2377 26.2963 15.5395C26.4247 16.1157 26.5787 16.6691 26.9495 16.9819C27.2101 17.2048 27.5035 17.3228 27.8021 17.3249C27.7243 17.5166 27.6198 17.6794 27.4957 17.8017C27.3716 17.924 27.2314 18.0026 27.0849 18.0319C26.854 18.1266 26.6154 18.1723 26.3761 18.168C26.3155 19.0262 26.087 19.8368 25.7205 20.4943C25.6708 20.366 25.6554 20.2134 25.6776 20.0683C25.703 19.3612 25.4737 18.8981 25.08 18.5905C24.8634 18.4226 24.6421 18.2671 24.4266 18.0973C23.9465 17.7278 23.5783 17.0895 23.3991 16.3155C23.281 15.85 23.2752 15.3356 23.383 14.8643C23.4288 14.7104 23.4559 14.5451 23.4628 14.3763C23.3078 13.9661 23.0572 13.6601 22.761 13.5191C22.4591 13.3366 22.1344 13.2578 21.8103 13.2883C21.4862 13.3188 21.1705 13.458 20.8856 13.6958C20.5927 13.9438 20.3417 14.2924 20.1523 14.714C20.0574 14.9137 19.9658 15.1171 19.8698 15.3256C19.6276 16.3261 19.5026 17.3496 19.7539 18.4421L20.3783 18.1592C20.4418 18.1183 20.5078 18.0865 20.5751 18.0637C20.8724 17.9984 21.1725 17.9671 21.4729 17.9701C21.7961 17.9699 22.1181 18.0293 22.432 18.1469C22.7568 18.2851 23.0521 18.5516 23.288 18.9193C23.3668 19.0466 23.4548 19.1615 23.5428 19.287C24.1104 19.1508 24.6016 19.4744 25.0116 19.9941C25.1948 20.227 25.343 20.5174 25.446 20.8456C25.5489 21.174 25.6042 21.5322 25.6082 21.896C25.6151 22.2496 25.6082 22.6031 25.5978 22.9567C25.5769 23.6115 25.6773 24.2619 25.8873 24.834C25.9753 25.0903 26.1375 25.2424 26.2696 25.4403C25.9939 25.6735 25.8897 25.6505 24.9294 25.154C24.8228 25.5074 24.8448 25.914 24.7742 26.2851C24.7289 26.5255 24.6583 26.7465 24.605 26.978C24.5904 27.0526 24.5594 27.1169 24.5172 27.1601C24.4748 27.2033 24.4241 27.2228 24.3734 27.2151C24.3723 26.7076 24.297 26.2072 24.1533 25.7497C23.7989 25.488 23.5266 25.0019 23.2267 24.5724C23.0786 24.3753 22.9479 24.1501 22.8374 23.9024C22.3103 22.665 22.2884 21.3675 22.6671 20.0294C22.2768 19.1455 20.8728 18.746 20.0574 19.8244C20.0308 19.9781 20.0968 20.0948 20.1304 20.2221C20.4408 21.3799 20.8462 22.4689 21.2065 23.5894C21.3168 23.918 21.4065 24.2619 21.474 24.6165C21.5725 25.1574 21.7265 25.6772 21.8401 26.2074C22.0092 26.9976 22.0637 27.823 22.1366 28.6433C22.2189 29.589 22.1064 30.501 21.9871 31.4185C21.9845 31.4533 21.9785 31.4872 21.9699 31.5192C21.7056 32.3449 21.445 33.1737 20.9388 33.7378C20.7247 33.9765 20.515 34.2255 20.296 34.4537C20.2119 34.5485 20.1149 34.613 20.0122 34.6428C19.7958 34.6978 19.5826 34.7801 19.3751 34.8885C19.1399 34.9808 18.8974 35.0224 18.6546 35.0122H18.2341C18.2341 35.7192 18.197 36.3892 18.226 36.9937C18.2703 37.1678 18.3488 37.3167 18.4508 37.4199C18.5939 37.481 18.7454 37.481 18.8886 37.4199C19.2464 37.2458 19.6236 37.1855 19.9971 37.243C20.1487 37.147 20.2875 37.0097 20.4071 36.8383C20.6313 36.7247 20.8709 36.7028 21.1022 36.7747C21.1875 36.8028 21.276 36.803 21.3615 36.7753C21.4468 36.7476 21.5275 36.6926 21.598 36.6137C21.7138 36.4972 21.8297 36.384 21.934 36.2815C22.0179 36.2351 22.1104 36.2399 22.1922 36.2949C22.2738 36.3499 22.3386 36.4508 22.3729 36.5767C22.3787 36.6774 22.3832 36.8187 22.3937 36.9567C22.4025 37.2937 22.4723 37.6203 22.5953 37.9005C22.6689 38.0387 22.7133 38.2078 22.7221 38.3853C22.731 38.563 22.7042 38.7405 22.6451 38.894C22.3636 39.7778 22.2363 40.7253 22.0659 41.6533C22.0269 41.8765 22.0187 42.1095 22.0416 42.3374C22.1575 42.8678 22.4817 42.9049 22.6463 43.193C22.7551 43.801 22.5304 44.319 22.5224 44.9076C22.2535 45.302 21.9432 45.6483 21.7671 46.1185C21.1972 46.4915 20.7397 46.9653 20.5218 47.8703L20.2716 48.153C20.2509 48.1978 20.2376 48.2495 20.2332 48.3037C20.2287 48.358 20.2332 48.4133 20.2461 48.4642C20.3087 48.604 20.4258 48.5508 20.4929 48.641C20.2612 49.1342 20.1188 49.1801 19.6659 48.9026C19.4237 49.0458 19.191 49.3233 18.9002 49.288C18.6094 49.2526 18.3824 49.0122 18.1589 48.772C17.9746 48.9008 17.9643 49.1253 17.948 49.378C18.0025 49.5355 18.0639 49.7051 18.123 49.8783C17.8056 49.9722 17.7615 49.942 17.4047 49.3692L17.1731 47.8703C17.2808 47.5008 17.4766 47.3276 17.6469 47.089C17.6114 47.0295 17.5643 46.9887 17.5127 46.9733C17.4609 46.9576 17.4073 46.9678 17.3596 47.0024C17.0585 47.1349 16.7897 47.0147 16.5256 46.8097C16.5019 46.7992 16.4773 46.7938 16.4526 46.7938C16.2361 47.0395 16.2778 47.4601 16.177 47.789C16.0797 47.7608 16.0264 47.6387 15.9592 47.5555C15.8004 47.0253 15.7437 46.4737 15.9198 45.9099C15.7832 45.6005 15.7738 45.2435 15.7299 44.8758C15.768 44.6585 15.804 44.418 15.8457 44.1828C15.8713 44.0453 15.9209 43.9208 15.9893 43.8228C16.0576 43.7247 16.1421 43.6567 16.2337 43.626C16.4916 43.5078 16.7685 43.5303 17.0168 43.6897C17.2484 43.8665 17.5172 43.9849 17.699 44.3474C18.0975 44.2165 18.4312 44.6178 18.7902 44.646C18.9047 44.5905 19.0105 44.4987 19.1004 44.377C19.1903 44.2553 19.2628 44.106 19.3125 43.939C19.3704 43.7647 19.4536 43.6128 19.5559 43.4953C19.6899 43.3245 19.7804 43.0874 19.8118 42.8253C19.8397 42.5997 19.8897 42.3815 19.96 42.1783C20.1091 41.682 20.2103 41.1549 20.2601 40.614C20.2716 40.5433 20.2707 40.4692 20.2572 40.3995C20.2437 40.3295 20.2185 40.2662 20.1836 40.2162C19.5883 40.052 19.0763 40.3595 18.614 40.9233C18.4353 41.117 18.272 41.342 18.1276 41.5933C18.021 41.7595 17.8811 41.8665 17.7303 41.8974C17.5288 41.968 17.3271 42.0476 17.1337 42.1183C16.9555 42.3555 16.7613 42.5635 16.5546 42.7387C16.1224 43.0924 15.7437 42.9897 15.3846 42.4117C15.3221 42.1095 15.2549 41.7735 15.1831 41.4395C15.127 41.0926 14.9903 40.7887 14.7985 40.584C14.4047 40.2303 14.2958 39.6505 14.2622 39.0124C14.2576 38.9242 14.2576 38.8355 14.2622 38.7474C14.2884 38.4392 14.2667 38.126 14.1989 37.833C14.1311 37.5401 14.0191 37.2755 13.8718 37.061C13.6112 36.8701 13.6112 36.8701 13.1977 37.061C13.1155 37.171 13.0381 37.289 12.966 37.4145C12.8292 37.6785 12.6495 37.8833 12.4447 38.0085C12.281 38.1155 12.1424 38.2962 12.0475 38.5265C12.0033 38.826 12.0033 39.137 12.0475 39.4367C12.2884 39.753 12.6151 39.967 12.768 40.5151C12.8087 40.8092 12.787 41.1153 12.706 41.3895C12.625 41.6633 12.4888 41.8908 12.3174 42.0387C12.2337 42.0999 12.1558 42.1778 12.0857 42.2703C11.7637 42.7795 11.3814 43.186 11.0513 43.6755C10.7038 44.1917 10.4223 44.8087 10.4871 45.5776C10.5787 45.9099 10.7837 45.9842 10.9215 46.2247C10.8057 46.7372 10.4826 46.7992 10.2265 46.9901C9.93 47.2092 9.64161 47.0165 9.36242 46.8947C8.96161 47.7537 8.75894 47.713 8.23417 47.9092C7.97048 47.8615 7.72004 47.7062 7.50905 47.4601C7.38338 47.3301 7.23847 47.2501 7.08741 47.227C6.88509 47.2649 6.69799 47.4108 6.55922 47.6387C6.51451 47.903 6.43576 48.1512 6.32756 48.3687C6.04029 48.6128 6.04029 48.6128 5.58275 48.2345C5.56055 48.2412 5.53882 48.2513 5.51788 48.2645C5.48893 48.2928 5.46343 48.3299 5.42522 48.3758C5.42522 48.519 5.42522 48.6587 5.42522 48.7983C5.42522 48.938 5.41595 49.0424 5.41016 49.1978C5.1611 49.1005 5.07423 48.8178 5.00937 48.5174C4.9445 48.2167 5.05222 47.8897 4.98273 47.5699C4.9291 47.513 4.86386 47.4876 4.79894 47.4983C4.73404 47.509 4.67385 47.5551 4.62944 47.628C4.53909 47.9128 4.60163 48.2078 4.62944 48.512C4.49163 48.4537 4.36822 48.3347 4.27482 48.1695C4.18141 48.0042 4.12221 47.8005 4.1047 47.584C4.07918 47.3208 4.08982 47.0522 4.13597 46.7955C4.16381 46.6976 4.17561 46.5905 4.17036 46.4842C4.16511 46.3776 4.14298 46.2747 4.10586 46.184C3.8904 46.0797 3.69582 46.092 3.52669 46.3465C3.43519 46.4862 3.50005 46.7001 3.4317 46.8433C3.02282 46.5658 2.94868 46.0937 3.20004 45.2647C3.12475 44.8565 3.29038 44.4162 3.24174 43.9515C3.13999 43.8995 3.03163 43.8849 2.92551 43.909C2.69384 43.9815 2.65678 44.2624 2.53399 44.3951C2.25136 43.4972 2.55716 42.8042 3.31819 42.6133C3.39533 42.4667 3.49503 42.3512 3.60838 42.2776C3.72174 42.204 3.84528 42.1742 3.96801 42.1908C4.11745 42.0387 4.19969 41.809 4.40124 41.6851C4.67409 41.6933 4.94599 41.6335 5.20629 41.5085C5.45559 41.4062 5.72094 41.4503 5.94994 41.6322C6.29743 41.9699 6.51522 42.8201 6.53723 43.467C6.62786 43.7976 6.77759 44.0826 6.96932 44.2897C7.16099 44.4965 7.387 44.617 7.62147 44.6372C7.67178 44.6258 7.72004 44.5985 7.76311 44.5572C7.80618 44.5158 7.84311 44.4612 7.87164 44.397C7.96495 44.1495 8.11335 43.9612 8.2898 43.8665C8.34898 43.8295 8.40113 43.7703 8.44161 43.6949C8.48201 43.6192 8.50946 43.5295 8.52147 43.4335C8.63731 42.8253 8.76126 42.219 8.86898 41.6055C8.93614 41.2167 8.89792 41.0383 8.73341 40.722C8.53649 40.6583 8.38591 40.8385 8.2272 40.978C8.0083 41.176 7.79983 41.3988 7.58434 41.604C7.28434 41.8867 6.967 41.8355 6.64726 41.7047C6.60727 41.6895 6.57178 41.6542 6.54655 41.6045C6.52132 41.5549 6.50783 41.4935 6.50826 41.4305C6.51984 41.3122 6.58703 41.268 6.64146 41.2045C6.82775 40.9895 6.95888 40.6817 7.01198 40.3345C7.06509 39.9874 7.0369 39.6228 6.93219 39.3042C6.84993 39.0515 6.76658 38.7985 6.67853 38.551C6.5135 38.0447 6.43387 37.483 6.44688 36.9178C6.44556 36.3335 6.58301 35.7683 6.83376 35.327C7.10597 34.816 7.47662 34.5333 7.83573 34.231C8.38939 33.7624 9.00447 33.5947 9.63 33.5097C10.1153 33.4442 10.6018 33.4549 11.086 33.3983C11.5088 33.3487 11.9351 33.2728 12.3277 32.9742C12.4831 32.8676 12.6176 32.7012 12.7182 32.4915C12.8187 32.2817 12.8817 32.0355 12.9011 31.7774C12.7794 31.723 12.6556 31.6801 12.5305 31.6483C12.0671 31.5742 11.766 31.118 11.5007 30.5878C11.3651 30.2887 11.2136 30.0074 11.0478 29.7462C10.9054 29.6637 10.7497 29.6497 10.6018 29.7055C10.186 30.068 10.347 30.6515 10.3887 31.2028C10.3377 31.3142 10.2729 31.2594 10.2092 31.2169C9.97751 31.0526 9.7655 30.8476 9.6543 30.4605C9.58754 30.2555 9.51369 30.056 9.43307 29.863C9.3543 29.6562 9.39137 29.4105 9.3485 29.209C9.30331 29.0976 9.23266 29.0747 9.17246 29.0199C8.96673 28.8492 8.81137 28.5653 8.73806 28.226C8.69751 28.0247 8.64884 27.8267 8.59908 27.6287C8.52263 27.328 8.40795 27.0983 8.12761 27.1355C8.01246 27.2142 7.90167 27.3069 7.79635 27.413C7.52543 27.6853 7.22379 27.879 6.90672 27.984C6.71909 28.0653 6.52564 28.1235 6.33799 28.2085C6.25234 28.2333 6.17245 28.292 6.10621 28.3785C6.03998 28.4649 5.9897 28.5762 5.96036 28.7017C5.85148 29.223 5.58969 29.5112 5.26535 29.6615C4.97367 29.7837 4.72222 30.0674 4.55993 30.4569C4.47899 30.6728 4.36598 30.857 4.22999 30.9942C4.09399 31.1312 3.93881 31.218 3.7769 31.2472C3.72238 31.2608 3.66857 31.2801 3.61589 31.3053C3.41897 31.7297 3.63094 32.0515 3.71666 32.3978C3.26954 32.5215 2.91161 32.0178 2.81546 31.1092C2.61971 31.187 2.46797 31.4274 2.2444 31.4026C2.02085 31.3778 1.87373 31.127 1.66524 31.0492C1.4243 31.2258 1.5494 31.5795 1.48685 31.848C1.27256 31.834 1.27256 31.834 1.05363 31.4555C0.95054 30.8247 0.95054 30.8247 1.02815 30.1369C0.922738 29.748 0.823121 29.3326 0.947066 28.8997C0.754779 28.7424 0.7154 28.7494 0.599563 28.8997C0.522349 29.028 0.46705 29.1833 0.438554 29.3522C-0.0247825 28.7599 0.00649231 28.2651 0.57408 27.3653C0.651688 26.6192 1.0768 26.3328 1.4521 26.0537C1.50599 25.9267 1.53758 25.7805 1.54387 25.6294C1.55016 25.4785 1.53093 25.3274 1.48801 25.191C1.2853 25.0142 1.11619 25.191 0.930847 25.3483C0.901892 25.032 0.99108 24.804 1.04668 24.5758C1.16009 24.4067 1.3015 24.288 1.45578 24.2324C1.61004 24.1765 1.77135 24.186 1.92239 24.2594C2.11004 24.3408 2.31275 24.3142 2.50156 24.4078C2.69462 24.478 2.86723 24.6428 2.99282 24.8774C3.11842 25.1117 3.19001 25.4028 3.19656 25.7053C3.20338 25.7455 3.21269 25.7847 3.22436 25.8222C3.3402 25.8803 3.45604 25.9317 3.57186 26.0112C3.68664 26.1003 3.79837 26.1983 3.90662 26.3047C4.05376 26.3397 4.20404 26.3276 4.34795 26.2692C4.60047 26.1174 4.82403 25.9158 4.92712 25.4845C4.95029 25.3855 4.98967 25.2953 5.01168 25.1947C5.08819 24.764 5.23899 24.3728 5.44838 24.0615C5.47126 23.9962 5.47836 23.9208 5.46839 23.8483C5.45842 23.776 5.43206 23.7112 5.39394 23.6655C5.23524 23.5842 5.03253 23.6937 4.853 23.4765C4.76264 23.3597 4.75569 23.1228 4.67924 22.946C4.41398 22.7428 4.41398 22.7428 3.99814 23.098C3.96591 23.008 3.95011 22.9065 3.95235 22.8037C3.95459 22.7012 3.97481 22.6013 4.01087 22.5148C4.0824 22.2797 4.20363 22.088 4.35509 21.9707C4.50656 21.8533 4.67946 21.8171 4.84604 21.8678C5.0279 21.9137 5.20629 21.9809 5.38352 22.0446C5.74376 21.8412 5.75882 21.813 5.76692 21.2969C5.49356 20.6286 5.09161 20.8054 4.69083 20.9751C4.61553 20.7029 4.69083 20.5014 4.77886 20.3175C4.82878 20.2079 4.89455 20.1173 4.97107 20.0526C5.04759 19.988 5.13282 19.951 5.22019 19.9446C5.47338 19.8958 5.73021 19.9156 5.9789 20.0029C6.03334 20.0276 6.09472 20.0612 6.14222 20.0029C6.14222 19.4214 5.87233 19.0289 5.46112 19.0183C5.43255 19.1682 5.38323 19.307 5.3165 19.4253C5.24975 19.5436 5.16713 19.6387 5.07423 19.7042C4.59121 19.789 4.51361 19.7749 4.2993 19.5662C4.35954 19.1916 4.60974 18.884 4.46727 18.343C4.40819 18.1892 4.31794 18.0689 4.21011 18.0001C3.87419 17.8021 3.54407 17.5882 3.35872 17.0597C3.07378 17.2205 2.81548 17.2701 2.56063 17.0597C2.31507 17.3443 2.22472 17.9171 1.82741 17.9171C1.81002 17.6006 1.92239 17.2966 1.85521 16.989C1.78338 16.646 1.59573 16.441 1.42083 16.2554C1.07333 15.8859 0.935482 15.3433 0.821967 14.7653C0.739721 14.3481 0.768677 13.9239 0.762888 13.5279C0.728138 13.3511 0.60883 13.3423 0.568288 13.2079C0.531221 12.6565 0.663272 12.4336 1.14746 12.2586L1.30847 11.7072C1.58416 11.1999 1.98725 11.3801 2.29769 11.1362C2.25251 10.7933 2.06602 10.6943 1.93049 10.514C1.79497 10.3337 1.66293 10.1269 1.54246 9.95187C1.50539 9.36853 1.52161 9.30489 1.83204 8.84178L2.06371 8.74101C2.52705 8.90894 2.93593 9.27131 3.3819 9.44808C3.49966 9.36596 3.59709 9.22844 3.65989 9.05567C3.85797 8.62081 4.10239 8.23369 4.28888 7.79353C4.47537 7.35339 4.72325 7.01576 4.88195 6.55616C4.93224 6.43783 4.99219 6.32971 5.06034 6.23444C5.21788 5.97637 5.38468 5.72889 5.46228 5.38241C5.47713 5.31471 5.50305 5.25387 5.53756 5.20566C5.81557 4.8256 6.0009 4.33241 6.23257 3.89758C6.51058 3.37964 6.75267 2.81753 7.03068 2.30666C7.32939 1.71473 7.74283 1.28172 8.21219 1.0693C8.23075 1.0693 8.25621 1.08343 8.27935 1.09228C8.36509 1.26904 8.27935 1.43167 8.26085 1.59607C8.1913 2.26778 8.04768 2.89353 7.7257 3.39378C7.69983 3.42926 7.67867 3.47185 7.66311 3.5193C7.52761 4.0496 7.27744 4.48269 7.05614 4.93344C6.70055 5.65112 6.4156 6.43948 6.06231 7.16071C5.87941 7.49926 5.70924 7.85335 5.55262 8.22131C5.29895 8.89303 4.95376 9.46753 4.7024 10.1392L4.55067 10.5511C4.84372 11.1698 5.28506 11.5817 5.50282 12.2428L5.3951 12.7943C5.29576 13.0266 5.14274 13.1931 4.96651 13.2609C4.65492 13.1143 4.37459 12.8208 4.07227 12.6476C4.02666 12.6782 3.98648 12.725 3.95506 12.784C3.92363 12.843 3.90187 12.9126 3.89157 12.987C3.89359 13.0363 3.89825 13.0854 3.90546 13.1336C3.94701 13.2993 4.01512 13.4463 4.10354 13.5615C4.23412 13.7645 4.30768 14.0371 4.30857 14.3216C4.32016 14.8873 4.44179 15.0994 4.8194 15.216C5.13447 15.3132 5.45416 15.3698 5.7704 15.4758C6.32779 15.6354 6.85983 15.9571 7.33765 16.4233C7.47389 16.5926 7.64502 16.6828 7.82065 16.6779C7.88509 16.6815 7.94918 16.6624 8.00795 16.6223C8.06679 16.5821 8.11888 16.5219 8.16004 16.4463C8.18891 16.3613 8.20393 16.2671 8.20393 16.1715C8.20393 16.0758 8.18891 15.9816 8.16004 15.8966C8.12147 15.8299 8.07348 15.7775 8.01976 15.7432C7.96597 15.709 7.90782 15.6936 7.84959 15.6986C7.73376 15.6898 7.61792 15.771 7.50208 15.6827C7.47662 15.3292 7.62952 15.1648 7.80331 15.0569C8.0571 14.8805 8.34099 14.8317 8.6141 14.9173C8.8956 15.0145 9.15969 15.209 9.49792 15.2708C9.63232 15.2196 9.81417 15.1666 9.98789 15.0728C10.2196 14.9491 10.2613 14.8201 10.2462 14.387C10.1246 14.0847 9.89874 14.1643 9.72038 14.0865C9.69949 13.809 9.80024 13.641 9.89874 13.4749C10.0873 13.3342 10.2974 13.2744 10.5065 13.3018C10.7156 13.3292 10.9159 13.4428 11.086 13.6304C11.241 13.7566 11.4085 13.8432 11.5818 13.8867C11.8228 13.7895 12.0729 13.6994 12.249 13.3865C12.2767 13.3386 12.2938 13.2788 12.2979 13.2154C12.3021 13.152 12.2931 13.0881 12.2722 13.0329C12.1065 12.8561 11.9918 13.0241 11.8946 13.2097C11.8384 13.335 11.7558 13.4272 11.6606 13.4709C11.5653 13.5146 11.4631 13.5073 11.371 13.4501L11.188 13.3529C11.0973 13.1744 11.033 12.968 10.9996 12.748C10.9662 12.528 10.9645 12.2996 10.9945 12.0784C11.0242 11.89 11.0413 11.6975 11.0455 11.5038C11.0918 11.4544 11.0872 11.4438 11.0594 11.4685Z" fill="#97999B"/>
<path d="M121.791 38.0594C121.766 37.9437 121.769 37.8187 121.799 37.706C121.886 37.6723 121.984 37.6352 122.082 37.5946C122.151 37.5716 122.212 37.5162 122.259 37.4362C122.306 37.3562 122.335 37.2558 122.342 37.1491C122.364 36.9581 122.377 36.7648 122.381 36.571C122.381 31.8866 122.381 27.2023 122.381 22.5181C122.379 22.4588 122.374 22.3998 122.368 22.3413C122.23 22.3536 122.213 22.5427 122.165 22.6612C120.924 25.665 119.685 28.67 118.449 31.6764L115.959 37.7271C115.911 37.8456 115.858 37.9587 115.814 38.0612C115.694 38.1064 115.569 38.1108 115.448 38.0735C114.381 35.4539 113.316 32.7864 112.244 30.1189C111.171 27.4516 110.114 24.8319 109.024 22.1238C108.966 22.2968 108.947 22.4927 108.966 22.6842C108.966 24.6994 108.966 26.7144 108.966 28.7296C108.966 31.2927 108.966 33.856 108.966 36.4189C108.966 36.6294 108.966 36.8433 108.985 37.0537C108.99 37.1787 109.022 37.2977 109.078 37.391C109.132 37.4839 109.207 37.5452 109.288 37.5644C109.422 37.6106 109.557 37.6423 109.686 37.6794C109.708 37.7321 109.72 37.7935 109.72 37.8562C109.72 37.9187 109.708 37.98 109.686 38.0331C109.361 38.1052 105.516 38.1 105.254 38.0331C105.226 37.9369 105.223 37.8287 105.244 37.7289C105.261 37.706 105.276 37.6723 105.294 37.6635C105.327 37.6506 105.362 37.641 105.396 37.6352C105.793 37.5062 105.866 37.37 105.876 36.7337C105.876 36.5923 105.876 36.4508 105.876 36.3094V16.4902C105.876 16.2958 105.876 16.1014 105.876 15.9069C105.856 15.4225 105.759 15.2582 105.439 15.1768C105.383 15.1627 105.323 15.1874 105.267 15.1132C105.243 15.0519 105.231 14.9807 105.234 14.909C105.237 14.8373 105.253 14.7686 105.282 14.7119H110.775C110.797 14.7337 110.814 14.7641 110.825 14.8C110.836 14.836 110.841 14.8759 110.837 14.9152C110.833 14.986 110.824 15.0562 110.814 15.1256C110.569 15.2298 110.29 15.2334 110.19 15.67C110.167 15.9564 110.27 16.1579 110.355 16.3647C111.655 19.5194 112.956 22.6741 114.258 25.8289C114.708 26.9189 115.157 28.0114 115.605 29.1062C115.672 29.2687 115.744 29.4277 115.826 29.6206C115.932 29.4846 116.018 29.316 116.077 29.1256C117.819 25.0175 119.56 20.9083 121.301 16.7979C121.396 16.575 121.497 16.3594 121.587 16.1332C121.665 15.9387 121.755 15.7461 121.703 15.4809C121.568 15.1539 121.324 15.2229 121.132 15.1521C121.048 15.0054 121.08 14.8729 121.105 14.7155H126.611C126.634 14.7716 126.648 14.8352 126.652 14.9013C126.656 14.9673 126.65 15.0339 126.634 15.0956C126.557 15.2069 126.459 15.1644 126.37 15.1857C126.277 15.1931 126.189 15.2502 126.121 15.3472C126.052 15.4443 126.009 15.5749 125.998 15.716C125.98 15.8915 125.97 16.0687 125.968 16.2463C125.968 23.0164 125.968 29.7862 125.968 36.555V36.6083C125.977 37.3894 126.05 37.5221 126.547 37.6564C126.57 37.6564 126.592 37.6706 126.615 37.6775C126.639 37.6846 126.647 37.736 126.649 37.7677C126.649 37.8544 126.649 37.9446 126.649 38.0258C126.388 38.1196 122.326 38.1444 121.791 38.0594Z" fill="#1A589A"/>
<path d="M47.5419 16.6074C47.6636 16.6817 47.7933 16.6427 47.8721 16.8054C47.7481 17.2278 46.1681 21.1468 45.9631 21.5392C45.8419 21.5002 45.7273 21.4225 45.6271 21.3111C45.5681 21.1344 45.6492 20.9576 45.5786 20.7136C45.4372 20.4468 45.2021 20.2558 44.9693 20.0615C44.3456 19.5583 43.6843 19.172 43 18.9106C42.1037 18.5569 41.1878 18.3308 40.264 18.2354C39.328 18.1355 38.3882 18.1515 37.4539 18.2831C36.6675 18.3593 35.8918 18.6015 35.1489 19.0026C34.7075 19.2254 34.3031 19.5921 33.9638 20.0773C33.6823 20.4823 33.516 21.0395 33.5005 21.6294C33.489 21.9046 33.5279 22.1792 33.6131 22.4224C33.6983 22.6657 33.8261 22.8678 33.9823 23.0065C34.2102 23.219 34.4595 23.3724 34.7202 23.4607C35.2025 23.6369 35.6947 23.7428 36.1902 23.7771C37.0926 23.853 37.9949 23.883 38.8983 23.8796C39.9757 23.8796 41.0529 23.8796 42.1279 24.0017C43.2758 24.1235 44.404 24.3976 45.4801 25.0517C46.1658 25.439 46.7897 26.0446 47.3103 26.828C48.1698 28.1751 48.4802 29.796 48.3388 31.638C48.2069 33.3649 47.5987 34.6519 46.7033 35.6576C45.9376 36.5167 45.0712 37.0524 44.1642 37.4465C43.2598 37.8238 42.3359 38.0828 41.4028 38.2207C40.1118 38.4219 38.813 38.481 37.5164 38.3976C35.8125 38.3055 34.1248 38.014 32.4835 37.254C31.942 36.9996 31.4115 36.6932 30.8955 36.3365C30.7795 36.2588 30.6637 36.1755 30.5479 36.103C30.183 35.8715 30.1449 35.8769 29.7962 36.1544C29.7216 36.1699 29.6458 36.1488 29.5795 36.0942C29.5158 36.0342 29.5123 36.0042 29.5262 35.9653C29.7579 35.3376 29.9895 34.7085 30.234 34.0826C30.607 33.1057 30.9815 32.1299 31.3576 31.1553C31.4114 30.978 31.4828 30.8149 31.5695 30.671C31.719 30.6569 31.8255 30.8001 31.9494 30.8671C31.9544 30.929 31.9544 30.9913 31.9494 31.0528C31.8591 31.5513 31.9819 31.9544 32.1962 32.3115C32.4071 32.641 32.6557 32.9094 32.9294 33.1032C33.4288 33.4767 33.9546 33.7607 34.4967 33.9501C35.5319 34.334 36.5905 34.5526 37.6555 34.6024C38.6279 34.6626 39.602 34.6235 40.5709 34.4857C41.3674 34.3869 42.1533 34.1438 42.912 33.761C43.1629 33.6246 43.4056 33.4555 43.6371 33.2553C43.8587 33.0632 44.0596 32.8199 44.2325 32.5342C44.3593 32.321 44.455 32.0694 44.5135 31.7957C44.572 31.5224 44.5919 31.2328 44.5718 30.9467C44.5518 30.6605 44.4922 30.3842 44.3974 30.1355C44.3024 29.8869 44.1739 29.6719 44.0206 29.5044C43.7418 29.2174 43.4338 29.0035 43.109 28.8715C42.5721 28.6494 42.0217 28.5124 41.4664 28.4632C40.8328 28.3871 40.1922 28.3413 39.5587 28.329C38.5509 28.3094 37.5431 28.2828 36.5365 28.2157C35.3574 28.1363 34.1804 27.9842 33.0348 27.5088C32.4509 27.2824 31.8934 26.9196 31.3819 26.434C30.4344 25.4953 29.9699 24.1465 29.9027 22.4478C29.8389 20.8339 30.2108 19.4746 30.9314 18.315C31.5177 17.4027 32.2137 16.6717 32.9815 16.1619C33.9763 15.4872 35.0253 15.0158 36.101 14.7602C37.2781 14.4573 38.472 14.3311 39.6651 14.3836C41.8552 14.4924 44.0193 15.1395 46.0744 16.2998C46.3129 16.4342 46.5539 16.5597 46.7913 16.701C46.911 16.7858 47.0432 16.8218 47.1746 16.8053C47.3063 16.7889 47.4327 16.7207 47.5419 16.6074Z" fill="#1A589A"/>
<path d="M134.105 38.1016C134.087 37.9248 134.069 37.8153 134.116 37.695C134.217 37.6595 134.328 37.6243 134.438 37.5818C134.513 37.5603 134.58 37.5009 134.63 37.4134C134.681 37.3259 134.71 37.2153 134.714 37.0993C134.729 36.9061 134.736 36.712 134.737 36.5178C134.737 29.7675 134.737 23.0161 134.737 16.2637C134.738 16.1049 134.733 15.9461 134.722 15.7882C134.69 15.41 134.594 15.2579 134.356 15.1871C134.278 15.1625 134.193 15.196 134.113 15.1094C134.101 15.0662 134.092 15.0211 134.087 14.9751C134.087 14.9041 134.09 14.8333 134.095 14.763C134.211 14.6357 134.346 14.694 134.469 14.694C135.742 14.694 137.017 14.694 138.29 14.694H150.382C150.578 14.7008 150.775 14.689 150.972 14.6586C151.211 14.6144 151.421 14.4818 151.478 14.0664C151.524 14.0315 151.576 14.0115 151.627 14.0076C151.679 14.0036 151.731 14.0158 151.779 14.0435C151.84 14.1619 151.847 18.6394 151.791 19.2846C151.71 19.3713 151.618 19.3235 151.535 19.32C151.463 19.2758 151.466 19.1804 151.453 19.0973C151.43 18.9684 151.385 18.852 151.319 18.7616C151.255 18.6712 151.176 18.6105 151.089 18.5864C150.921 18.52 150.747 18.4884 150.574 18.4928C149.961 18.4928 149.346 18.4928 148.732 18.4928H138.401C138.385 18.5132 138.371 18.5351 138.357 18.5581C138.35 18.5723 138.34 18.5864 138.34 18.6006C138.335 20.3859 138.331 22.1707 138.329 23.9548C138.324 23.993 138.325 24.0323 138.333 24.0695C138.34 24.1068 138.353 24.1409 138.371 24.1686C138.428 24.243 138.512 24.213 138.591 24.213H147.519C147.589 24.213 147.658 24.213 147.728 24.213C148.069 24.1811 148.343 24.0095 148.401 23.4298C148.497 23.3723 148.604 23.3648 148.704 23.4086C148.748 23.8505 148.755 28.1125 148.715 28.7363C148.617 28.8009 148.507 28.8059 148.406 28.7505C148.322 28.1866 148.034 28.0541 147.701 28.0311C147.574 28.0223 147.446 28.0311 147.319 28.0311H138.371C138.316 28.5136 138.313 33.7636 138.361 34.2675C138.456 34.3253 138.561 34.3411 138.661 34.3134H150.787C150.903 34.3175 151.019 34.3111 151.134 34.2941C151.413 34.2391 151.664 34.1173 151.701 33.6223C151.749 33.5832 151.803 33.5593 151.856 33.5528C151.91 33.5459 151.965 33.5563 152.016 33.5834C152.081 33.7141 152.098 37.8578 152.039 38.7786C151.952 38.8741 151.849 38.8353 151.733 38.8086C151.633 38.2466 151.326 38.1582 151.003 38.1245C150.853 38.1086 150.702 38.1245 150.552 38.1245H134.103L134.105 38.1016Z" fill="#1A589A"/>
<path d="M97.852 37.6925C97.8759 37.751 97.8875 37.8185 97.8862 37.8869C97.8848 37.9553 97.8705 38.0217 97.8452 38.078H92.9025C92.8841 38.0425 92.8623 38.018 92.8595 37.9915C92.8595 37.9048 92.8595 37.8146 92.8595 37.705C92.9838 37.668 93.1066 37.6362 93.2268 37.5919C93.4752 37.5 93.549 37.371 93.5804 36.9767C93.5899 36.8537 93.5947 36.7296 93.594 36.6055V28.2833C93.594 28.1789 93.5858 28.0748 93.5824 27.981L93.5469 27.9369C93.5387 27.9262 93.5278 27.9085 93.5189 27.9085L83.0636 27.8925H82.6746C82.5701 28.0128 82.5961 28.1455 82.5961 28.2639C82.5961 31.0392 82.5961 33.8133 82.5961 36.5862V36.6921C82.6152 37.3603 82.7114 37.53 83.1333 37.6467C83.1899 37.6625 83.2493 37.6696 83.2964 37.6803C83.3203 37.7315 83.3339 37.791 83.3374 37.853C83.3408 37.915 83.3339 37.9775 83.3162 38.0339C83.0582 38.1117 78.6473 38.124 78.295 38.048C78.2404 37.9348 78.2705 37.8198 78.2718 37.6944C78.4514 37.6148 78.6295 37.6308 78.7858 37.5175C78.8322 37.4744 78.8766 37.4253 78.9182 37.371C79.0043 37.0546 79.0391 36.7117 79.02 36.3706V28.5821C79.02 24.5542 79.02 20.525 79.02 16.4947C79.0227 16.2654 79.0145 16.0363 78.9954 15.8089C78.9565 15.4058 78.8554 15.2609 78.5947 15.1937C78.5046 15.1708 78.4118 15.1653 78.3271 15.1548C78.3066 15.1194 78.2841 15.0965 78.2773 15.0682C78.2541 14.9679 78.2568 14.8576 78.2855 14.7605L78.3121 14.727C78.3217 14.7161 78.3326 14.7076 78.3435 14.7023C78.435 14.7023 78.5278 14.6917 78.62 14.6917L83.2397 14.7005C83.2623 14.7088 83.2841 14.7219 83.3046 14.7394C83.366 14.849 83.3312 14.971 83.3312 15.0823C83.2261 15.222 83.0998 15.1566 82.992 15.1972C82.8991 15.2151 82.8131 15.2798 82.7469 15.3811C82.6814 15.4822 82.6391 15.6141 82.6281 15.7558C82.6118 15.8948 82.6015 16.0353 82.5981 16.1765C82.5981 18.6324 82.5981 21.0889 82.5981 23.546C82.5995 23.6053 82.6036 23.6644 82.6111 23.7228C82.6227 23.7453 82.6357 23.7665 82.6493 23.7865C82.6589 23.7967 82.6698 23.8028 82.6814 23.804L93.4131 23.8217C93.4527 23.8183 93.4909 23.8105 93.5292 23.7987C93.6186 23.6662 93.5899 23.516 93.5899 23.3817C93.5899 20.9952 93.5899 18.6094 93.5899 16.2242C93.5899 15.3722 93.5128 15.2538 92.964 15.1637C92.9421 15.1569 92.9203 15.1474 92.8991 15.1353C92.8807 15.116 92.8664 15.0892 92.8568 15.058C92.8479 15.0269 92.8445 14.9925 92.8473 14.9586C92.8507 14.8939 92.8561 14.8296 92.8643 14.7659C92.9674 14.6722 97.2664 14.6527 97.8363 14.7323C97.8657 14.7863 97.8834 14.853 97.8868 14.923C97.8896 14.9932 97.8787 15.063 97.8548 15.1229C97.8247 15.1435 97.7933 15.16 97.7619 15.1724C97.7053 15.1866 97.6459 15.1866 97.5892 15.199C97.4896 15.2103 97.3961 15.2758 97.3251 15.3835C97.2548 15.4911 97.2111 15.6339 97.2036 15.7859C97.1858 15.9957 97.1783 16.2072 97.1817 16.4187C97.1817 19.4944 97.1817 22.569 97.1817 25.6423C97.1817 29.2308 97.1817 32.8181 97.1817 36.404C97.179 36.616 97.1858 36.828 97.2022 37.0387C97.209 37.1817 97.2479 37.3167 97.3135 37.42C97.3783 37.5237 97.465 37.5896 97.5578 37.606C97.6602 37.6237 97.7599 37.6625 97.852 37.6925Z" fill="#1A589A"/>
<path d="M180.616 13.9411C180.716 13.8985 180.819 13.8918 180.919 13.9216C181.001 14.528 181.294 14.6729 181.644 14.6817C181.806 14.6817 181.969 14.6906 182.131 14.6906H198.6C198.737 14.6694 198.874 14.6795 199.008 14.7206C199.038 14.7772 199.053 14.8492 199.05 14.9219C199.045 14.9946 199.025 15.0623 198.988 15.1113C198.937 15.2067 198.872 15.2881 198.823 15.3835L187.494 33.7673C187.409 33.9051 187.33 34.0519 187.253 34.1881C187.308 34.3294 187.382 34.2887 187.445 34.2887H197.834C197.95 34.2937 198.067 34.2842 198.183 34.2606C198.423 34.1987 198.627 34.0556 198.681 33.6346C198.687 33.5767 198.707 33.5235 198.734 33.4817C198.763 33.4401 198.797 33.4115 198.835 33.3994C198.872 33.3876 198.913 33.3931 198.948 33.4151C198.984 33.4371 199.015 33.4748 199.038 33.5233V38.8529C199.002 38.8754 198.966 38.8926 198.929 38.9042C198.871 38.9042 198.813 38.9042 198.756 38.9042C198.731 38.8529 198.698 38.8175 198.691 38.7733C198.637 38.3915 198.464 38.2271 198.227 38.1476C198.034 38.096 197.838 38.0776 197.641 38.0929H180.961C180.844 38.1162 180.725 38.1031 180.612 38.054C180.588 37.9937 180.578 37.9221 180.584 37.8517C180.591 37.7812 180.615 37.7169 180.649 37.6704C180.711 37.5642 180.774 37.4617 180.838 37.3592L188.664 24.7151C189.856 22.7883 191.049 20.8604 192.24 18.9312C192.321 18.8326 192.388 18.7068 192.433 18.5635C192.394 18.4239 192.317 18.484 192.253 18.484C188.778 18.484 185.303 18.484 181.827 18.484C181.689 18.4838 181.55 18.5039 181.415 18.5441C181.182 18.6148 181.002 18.7721 180.95 19.1557C180.94 19.2029 180.925 19.2479 180.907 19.2901C180.814 19.3312 180.718 19.3355 180.624 19.3024C180.606 19.2578 180.594 19.2087 180.587 19.1574C180.587 17.4605 180.587 15.7641 180.587 14.0683C180.594 14.0244 180.605 13.9817 180.616 13.9411Z" fill="#1A589A"/>
<path d="M71.1317 30.1408C71.2177 30.0046 71.2792 29.9286 71.3631 29.9286C71.6566 30.3406 73.7959 34.2506 73.9119 34.5865C73.7495 34.7031 73.7495 34.7031 73.4853 34.6271C73.2812 34.6752 73.0867 34.7911 72.9147 34.9665C72.6239 35.2229 72.3351 35.4967 72.0471 35.7442C70.8566 36.7686 69.5659 37.4921 68.2244 37.8867C66.6319 38.3608 65.0069 38.5294 63.3872 38.3888C61.5859 38.2508 59.8264 37.7646 58.148 36.7131C57.1333 36.1021 56.197 35.2238 55.3818 34.1181C54.2046 32.5374 53.4465 30.3546 53.2504 27.9806C52.903 23.9769 53.8436 20.7791 55.8904 18.2991C57.0301 16.9186 58.3345 16.0223 59.7222 15.3984C60.7006 14.9654 61.7035 14.6725 62.7176 14.5234C63.8581 14.3416 65.0074 14.3268 66.1498 14.4791C67.7989 14.7078 69.4225 15.2548 70.9816 16.1071C71.3952 16.3311 71.8095 16.5538 72.2239 16.7754C72.5515 16.9521 72.8614 16.9521 73.1147 16.5509C73.2307 16.5509 73.3358 16.5509 73.4116 16.6782C73.4252 16.8125 71.2744 21.2352 70.9502 21.7461C70.8314 21.693 70.7194 21.6112 70.6177 21.5039V20.9736C70.5597 20.6926 70.4089 20.5493 70.2696 20.3991C69.9904 20.1154 69.6921 19.8784 69.3795 19.692C68.3194 19.0267 67.2066 18.5757 66.0698 18.3504C65.3703 18.197 64.6633 18.1379 63.957 18.1736C62.567 18.2602 61.1933 18.5589 59.9028 19.4216C59.0862 19.9678 58.3587 20.7032 57.7911 21.7708C57.2091 22.8608 56.8639 24.2002 56.8031 25.6031C56.7278 26.7315 56.8065 27.8715 57.0347 28.9511C57.3528 30.3483 57.9593 31.5504 58.7631 32.3769C59.5418 33.1769 60.4115 33.749 61.3276 34.0633C62.7265 34.5729 64.1692 34.7446 65.6031 34.5725C66.9691 34.4379 68.3058 33.9069 69.5413 33.0079C69.9106 32.7481 70.2607 32.4267 70.5836 32.0499C70.6928 31.9179 70.7966 31.7763 70.8942 31.6256C71.1597 31.2119 71.314 30.7417 71.1317 30.1408Z" fill="#1A589A"/>
<path d="M164.536 18.538C164.441 18.4803 164.336 18.4644 164.235 18.4921C162.128 18.4921 160.02 18.4921 157.912 18.4921C157.773 18.4882 157.635 18.5048 157.499 18.5416C157.226 18.621 157.009 18.7784 156.993 19.2486C156.944 19.2873 156.89 19.3097 156.836 19.3143C156.781 19.3189 156.726 19.3055 156.676 19.2751C156.625 18.8827 156.616 14.5166 156.665 13.9898C156.683 13.9721 156.702 13.9403 156.721 13.9385C156.807 13.9124 156.896 13.9267 156.975 13.9792C157.045 14.5095 157.313 14.6632 157.639 14.6862C157.777 14.6862 157.917 14.7004 158.056 14.7004H174.942C175.102 14.7004 175.265 14.7004 175.426 14.6774C175.718 14.6456 175.94 14.4635 176.005 13.988C176.053 13.9545 176.104 13.9358 176.156 13.9331C176.207 13.9303 176.26 13.9436 176.308 13.9721C176.353 14.3804 176.361 18.7112 176.317 19.2751C176.236 19.3635 176.145 19.3193 176.046 19.3105C176.029 19.2751 175.999 19.238 175.994 19.1939C175.94 18.812 175.77 18.6405 175.53 18.5716C175.407 18.5328 175.28 18.5115 175.152 18.5079H168.62C168.564 18.5079 168.504 18.5185 168.472 18.5221C168.446 18.5762 168.426 18.6384 168.417 18.7046C168.407 18.7707 168.407 18.8393 168.416 18.9056C168.416 24.8075 168.416 30.7102 168.416 36.6143C168.416 37.4097 168.5 37.5529 169.023 37.675L169.15 37.6997C169.166 37.7456 169.183 37.7756 169.184 37.8075C169.184 37.8922 169.184 37.9843 169.184 38.0568C168.91 38.1363 164.345 38.1575 163.864 38.0868C163.788 37.986 163.836 37.8641 163.822 37.7668C163.854 37.7297 163.87 37.696 163.89 37.6925C164.104 37.6377 164.334 37.6535 164.49 37.3568C164.556 37.1104 164.587 36.845 164.579 36.5788C164.579 30.7102 164.579 24.8427 164.579 18.9764C164.599 18.8271 164.584 18.6719 164.536 18.538Z" fill="#1A589A"/>
<path d="M17.9462 0.764287L17.9587 0.742188L17.9414 0.758394L17.9462 0.764287Z" fill="#97999B"/>
<path d="M20.8483 31.3798C20.7778 30.4871 20.4626 29.7181 20.3411 28.859C20.2984 28.6575 20.2393 28.4652 20.1649 28.2863C19.9251 27.5615 19.6623 26.8527 19.4502 26.1102C19.2256 25.3221 18.9765 24.5406 18.8873 23.6761C18.7931 22.909 18.8526 22.1163 19.0576 21.4012C19.0984 21.241 19.1729 21.106 19.2696 21.0176C19.3449 21.2509 19.4179 21.4825 19.4931 21.7106C19.7365 22.4512 20.0017 23.1759 20.2194 23.9342C20.4511 24.7198 20.6524 25.5254 20.8217 26.3473C21.0535 27.5102 21.2075 28.7017 21.1507 29.9356C21.1229 30.5417 21.0593 30.9413 20.8483 31.3798Z" fill="white"/>
<path d="M11.3685 10.5937C11.3614 10.4244 11.3834 10.2552 11.4324 10.103C11.4813 9.95072 11.5555 9.82066 11.6477 9.72572C12.0589 9.55955 12.4585 9.84237 12.8488 9.79641C12.9152 9.96324 12.941 10.1603 12.9218 10.3532C12.6763 10.5018 12.4075 10.4204 12.1516 10.4717C11.8955 10.5229 11.6454 10.7032 11.3685 10.5937Z" fill="white"/>
<path d="M12.8802 10.8709C12.7702 11.3145 12.6185 11.5567 12.3394 11.578C12.231 11.597 12.1235 11.626 12.0173 11.6645C11.854 11.5462 11.605 11.6646 11.4995 11.2916C11.4931 11.2575 11.4958 11.2207 11.5071 11.1895C11.5184 11.1584 11.5373 11.1353 11.5598 11.1255C11.9839 10.9039 12.4333 10.8172 12.8802 10.8709Z" fill="white"/>
<path d="M13.2084 6.00612C13.1243 6.06727 13.0286 6.08043 12.9386 6.04323C12.884 5.97637 12.843 5.88716 12.8205 5.78602C12.7979 5.68491 12.7947 5.57606 12.8112 5.47227C12.813 5.40043 12.8297 5.33133 12.8588 5.27483C12.888 5.21831 12.928 5.17729 12.9733 5.15762C13.2435 5.04002 13.5328 5.081 13.7841 5.27252C13.5259 5.45637 13.3753 5.74625 13.2084 6.00612Z" fill="white"/>
<path d="M11.0625 11.4681C11.0706 11.424 11.0914 11.4027 11.1065 11.4275C11.1215 11.4522 11.1065 11.4841 11.0787 11.4946L11.0625 11.4681Z" fill="white"/>
</svg>
