<svg width="32" height="24" viewBox="0 0 32 24" fill="none" xmlns="http://www.w3.org/2000/svg">
<path d="M10.0128 21.5C10.5657 21.5 11.014 21.0523 11.014 20.5C11.014 19.9477 10.5657 19.5 10.0128 19.5C9.45993 19.5 9.01172 19.9477 9.01172 20.5C9.01172 21.0523 9.45993 21.5 10.0128 21.5Z" stroke="white" stroke-linecap="round" stroke-linejoin="round"/>
<path d="M18.0206 21.5C18.5735 21.5 19.0218 21.0523 19.0218 20.5C19.0218 19.9477 18.5735 19.5 18.0206 19.5C17.4677 19.5 17.0195 19.9477 17.0195 20.5C17.0195 21.0523 17.4677 21.5 18.0206 21.5Z" stroke="white" stroke-linecap="round" stroke-linejoin="round"/>
<path d="M2.50391 2.5H5.50726L8.21027 14.9C8.30388 15.3586 8.55551 15.7698 8.92135 16.0621C9.2872 16.3545 9.74409 16.5094 10.2125 16.5H17.9211C18.3895 16.5094 18.8464 16.3545 19.2123 16.0621C19.5781 15.7698 19.8297 15.3586 19.9233 14.9L21.5251 6.5H7.10905" stroke="white" stroke-linecap="round" stroke-linejoin="round"/>
<path d="M30.5363 16.5C30.5363 20.3655 27.3991 23.5 23.5279 23.5C19.6568 23.5 16.5195 20.3655 16.5195 16.5C16.5195 12.6345 19.6568 9.5 23.5279 9.5C27.3991 9.5 30.5363 12.6345 30.5363 16.5Z" fill="white" stroke="#1B3730"/>
<path d="M26.0428 17.271C26.0428 18.2231 25.8802 18.9307 25.555 19.3936C25.2298 19.8564 24.7215 20.0879 24.0301 20.0879C23.3474 20.0879 22.8421 19.8623 22.514 19.4111C22.1858 18.957 22.0159 18.2803 22.0042 17.3809V16.2954C22.0042 15.355 22.1668 14.6562 22.492 14.1992C22.8172 13.7422 23.3269 13.5137 24.0213 13.5137C24.7098 13.5137 25.2166 13.7349 25.5418 14.1772C25.867 14.6167 26.034 15.2964 26.0428 16.2163V17.271ZM25.2298 16.1592C25.2298 15.4707 25.1331 14.9697 24.9397 14.6562C24.7464 14.3398 24.4402 14.1816 24.0213 14.1816C23.6053 14.1816 23.302 14.3384 23.1116 14.6519C22.9212 14.9653 22.823 15.4473 22.8172 16.0977V17.3984C22.8172 18.0898 22.9168 18.6011 23.116 18.9321C23.3182 19.2603 23.6228 19.4243 24.0301 19.4243C24.4314 19.4243 24.7288 19.269 24.9222 18.9585C25.1184 18.6479 25.221 18.1587 25.2298 17.4907V16.1592Z" fill="#1B3730"/>
</svg>
