<svg width="52" height="52" viewBox="0 0 52 52" fill="none" xmlns="http://www.w3.org/2000/svg">
<path fill-rule="evenodd" clip-rule="evenodd" d="M9.25419 12.9509C3.30507 16.1888 0 23.7475 0 30.414C0 42.3356 9.86486 51.9999 22.0338 51.9999H41.8642L40.7625 49.8413H22.0338C11.0818 49.8413 2.20338 41.1434 2.20338 30.414C2.20338 25.089 4.39026 20.2644 7.93216 16.7551L9.25419 12.9509ZM12.7796 12.7351C15.091 11.8105 19.383 10.9867 22.0338 10.9867H40.7625L41.8642 8.82812H22.0338C19.4035 8.82812 16.6606 9.31657 14.322 10.1448L12.7796 12.7351Z" fill="#1B3730"/>
<path fill-rule="evenodd" clip-rule="evenodd" d="M51.7566 21.5978L52 40.763L49.8175 39.5338L49.5901 21.6288C49.4516 10.7253 40.5006 2.01281 29.5974 2.16879C18.6942 2.32478 9.96764 11.2902 10.1061 22.1936L10.3279 39.6514L8.17834 41.0137L7.93968 22.2246C7.78599 10.1247 17.4701 0.17539 29.5698 0.00228851C41.6695 -0.170813 51.6029 9.49782 51.7566 21.5978Z" fill="#1B3730"/>
<path d="M16.8604 20.2831V19.2319H20.1586V20.2831H19.0465V24.564H17.9725V20.2831H16.8604ZM20.4633 23.5585C20.4633 23.853 20.603 24.1019 20.8823 24.305C21.1209 24.4776 21.4104 24.564 21.7506 24.564V23.627C21.4916 23.627 21.3469 23.5661 21.3164 23.4442C21.3114 23.4138 21.3088 23.3833 21.3088 23.3528V23.2462C21.3139 23.1599 21.3469 23.1015 21.4078 23.071C21.4332 23.0558 21.5272 23.0278 21.6897 22.9872C22.0858 22.8755 22.3524 22.779 22.4895 22.6977V23.3224C22.4895 23.4747 22.4184 23.5712 22.2762 23.6118C22.2407 23.622 22.2026 23.627 22.1619 23.627V24.564C22.4768 24.5589 22.7332 24.4776 22.9313 24.3202C23.1192 24.4827 23.368 24.564 23.6778 24.564V23.6194C23.5407 23.6093 23.4696 23.528 23.4645 23.3757V21.3876C23.4645 21.1083 23.3477 20.8493 23.1141 20.6106C22.8551 20.3516 22.5352 20.2221 22.1543 20.2221V21.1591C22.3727 21.1743 22.4844 21.2733 22.4895 21.4561V21.6313C22.4895 21.7735 22.2178 21.936 21.6744 22.1188C21.2073 22.2813 20.9407 22.3804 20.8746 22.4159C20.6055 22.5936 20.4684 22.845 20.4633 23.17V23.5585ZM20.5166 21.3114L21.4002 21.6466C21.4053 21.3266 21.5246 21.1641 21.7582 21.1591V20.2221C21.4078 20.2221 21.1006 20.3491 20.8365 20.603C20.6283 20.8163 20.5217 21.0524 20.5166 21.3114ZM24.2491 19.6051C24.2491 19.3969 24.343 19.2395 24.5309 19.1329C24.6172 19.0821 24.7086 19.0567 24.8051 19.0567C25.0184 19.0567 25.1784 19.1506 25.285 19.3385C25.3307 19.4249 25.3536 19.5137 25.3536 19.6051C25.3536 19.8184 25.2596 19.9784 25.0717 20.085C24.9854 20.1307 24.8965 20.1536 24.8051 20.1536C24.5868 20.1536 24.4243 20.0571 24.3176 19.8641C24.2719 19.7829 24.2491 19.6966 24.2491 19.6051ZM24.3024 24.564V20.4507H25.3231V24.564H24.3024ZM26.0544 24.564V19.11H27.1512V24.564H26.0544ZM27.7606 23.3833V21.3952C27.7606 21.1464 27.8698 20.9026 28.0882 20.6639C28.3624 20.3745 28.7102 20.2272 29.1317 20.2221V21.2124C28.9032 21.2327 28.7813 21.3292 28.7661 21.5018V23.2767C28.7762 23.4747 28.8981 23.5763 29.1317 23.5813V24.5716C28.6341 24.5716 28.2481 24.371 27.9739 23.9698C27.8317 23.7616 27.7606 23.5661 27.7606 23.3833ZM29.4821 24.5716V23.5813C29.6954 23.556 29.8122 23.4595 29.8325 23.2919L29.8249 21.5018C29.7893 21.319 29.6725 21.2225 29.4745 21.2124V20.2221C29.9518 20.2221 30.3251 20.4151 30.5942 20.801C30.7364 21.0093 30.8075 21.2073 30.8075 21.3952V23.3833C30.8075 23.6372 30.6983 23.886 30.48 24.1298C30.2159 24.4192 29.8833 24.5665 29.4821 24.5716ZM31.4169 24.564V20.2221H32.4528V20.702C32.6306 20.4735 32.8718 20.3161 33.1765 20.2298C33.2831 20.1993 33.3898 20.1841 33.4964 20.1841H33.7706L33.5345 21.2048C33.2146 21.2098 32.9378 21.3495 32.7042 21.6237C32.5366 21.8218 32.4528 22.0274 32.4528 22.2407V24.564H31.4169Z" fill="#1B3730"/>
<path d="M16.8984 31.1314L17.8658 30.7887C17.8658 30.9156 17.9014 31.0273 17.9725 31.1238C18.0436 31.2203 18.1147 31.2838 18.1858 31.3143L18.2924 31.3676V32.3578C17.8607 32.3578 17.4926 32.1699 17.1879 31.7941C17 31.5555 16.9035 31.3346 16.8984 31.1314ZM16.9594 28.4654C16.9594 27.9068 17.198 27.4879 17.6754 27.2086C17.8938 27.0765 18.0994 27.008 18.2924 27.0029V28.0084C18.1654 28.0439 18.0715 28.1353 18.0106 28.2826C17.9902 28.3283 17.9801 28.3765 17.9801 28.4273C17.9801 28.6355 18.135 28.8133 18.4447 28.9605C18.5108 28.991 18.6174 29.0367 18.7647 29.0976C19.0084 29.1941 19.1811 29.2728 19.2826 29.3338C19.694 29.5775 19.9682 29.8264 20.1053 30.0803C20.2069 30.2783 20.2576 30.4992 20.2576 30.743C20.2576 31.2051 20.0824 31.6012 19.7321 31.9312C19.4324 32.2156 19.0922 32.3578 18.7113 32.3578V31.3676C18.9094 31.3422 19.049 31.2381 19.1303 31.0553C19.1658 30.974 19.1836 30.8851 19.1836 30.7887C19.1836 30.5297 18.9906 30.3164 18.6047 30.1488C18.5336 30.1183 18.4219 30.0752 18.2695 30.0193C18.0918 29.9584 17.9674 29.9101 17.8963 29.8746C17.4596 29.6664 17.1803 29.3972 17.0584 29.0672C16.9924 28.8894 16.9594 28.6888 16.9594 28.4654ZM18.7113 28.0084V27.0029C19.1379 27.0029 19.4959 27.1832 19.7854 27.5437C19.953 27.757 20.0393 27.95 20.0444 28.1226L19.0541 28.4502C19.0541 28.2369 18.95 28.0922 18.7418 28.016C18.7215 28.0109 18.7113 28.0084 18.7113 28.0084ZM20.6994 31.1543V29.1586C20.7045 28.9097 20.8188 28.666 21.0422 28.4273C21.3164 28.1429 21.6516 27.9982 22.0477 27.9931V28.9529C21.9004 28.9529 21.7989 29.0164 21.743 29.1433C21.7278 29.1738 21.7201 29.2017 21.7201 29.2271V29.608H22.8551V29.2347C22.85 29.0469 22.718 28.9529 22.459 28.9529V27.9931C22.8297 27.9931 23.1547 28.1201 23.434 28.374C23.6778 28.5974 23.8022 28.8564 23.8073 29.151V30.5906H21.7201V31.1543C21.7557 31.3016 21.8674 31.3828 22.0553 31.398V32.335C21.578 32.335 21.1996 32.1395 20.9203 31.7484C20.7731 31.5402 20.6994 31.3422 20.6994 31.1543ZM22.459 32.335V31.4057C22.7332 31.4006 22.9084 31.2711 22.9846 31.0172L23.8149 31.3295C23.7387 31.6545 23.5457 31.916 23.236 32.1141C22.9973 32.2613 22.7383 32.335 22.459 32.335ZM24.1577 27.9931L25.4831 32.335H26.062L26.4047 31.2838L25.2926 27.9931H24.1577ZM25.9706 29.0367L26.5114 30.5906H26.6104L26.8465 29.8289L27.6159 32.335H28.1948L28.5376 31.2838L27.4255 27.9931H26.2905L25.9706 29.0367ZM28.1034 29.0367L28.6442 30.5906H28.7432L29.5583 27.9931H28.4233L28.1034 29.0367ZM29.9925 27.3761C29.9925 27.1679 30.0864 27.0105 30.2743 26.9039C30.3606 26.8531 30.452 26.8277 30.5485 26.8277C30.7618 26.8277 30.9218 26.9216 31.0284 27.1095C31.0741 27.1959 31.097 27.2847 31.097 27.3761C31.097 27.5894 31.003 27.7494 30.8151 27.856C30.7288 27.9017 30.6399 27.9246 30.5485 27.9246C30.3302 27.9246 30.1677 27.8281 30.061 27.6351C30.0153 27.5539 29.9925 27.4675 29.9925 27.3761ZM30.0458 32.335V28.2217H31.0665V32.335H30.0458ZM31.7673 32.335V29.1738C31.7673 28.9199 31.8815 28.6711 32.1101 28.4273C32.3894 28.1379 32.7372 27.9906 33.1536 27.9855V28.9986C32.9403 29.024 32.8235 29.123 32.8032 29.2957V32.335H31.7673ZM33.504 28.9986V27.9855C33.9966 27.9855 34.3851 28.181 34.6695 28.572C34.8218 28.7853 34.898 28.9859 34.898 29.1738V32.335H33.862V29.2957C33.862 29.1281 33.7681 29.0316 33.5802 29.0062C33.5548 29.0012 33.5294 28.9986 33.504 28.9986ZM35.3398 33.7822L35.5759 32.8453H37.0841C37.2466 32.8402 37.3507 32.7666 37.3964 32.6244C37.4015 32.6143 37.404 32.6066 37.404 32.6016V32.2436C37.2974 32.2639 37.1831 32.274 37.0613 32.274V31.3295C37.2796 31.3193 37.3939 31.2355 37.404 31.0781V29.1357C37.404 29.0646 37.3583 29.0012 37.2669 28.9453C37.206 28.9097 37.1374 28.892 37.0613 28.892V27.9398C37.1831 27.9398 37.2974 27.955 37.404 27.9855V27.9398H38.379V32.6016C38.379 32.825 38.28 33.0561 38.082 33.2947C37.8179 33.6147 37.4904 33.7772 37.0994 33.7822H35.3398ZM35.4159 31.101V29.0976C35.421 28.8539 35.5302 28.6152 35.7435 28.3816C36.0075 28.0922 36.3376 27.9449 36.7337 27.9398V28.892C36.5509 28.892 36.4341 28.958 36.3833 29.09C36.3783 29.1053 36.3757 29.1154 36.3757 29.1205V31.0934C36.3757 31.2101 36.4493 31.2838 36.5966 31.3143C36.6372 31.3244 36.6829 31.3295 36.7337 31.3295V32.274C36.2564 32.274 35.8857 32.0734 35.6216 31.6723C35.4845 31.4691 35.4159 31.2787 35.4159 31.101Z" fill="#1B3730"/>
<path d="M17.066 40.106V36.7239H17.1346L18.14 39.1386V40.106H17.066ZM17.066 35.4747V34.7739H17.9039L19.3588 38.3007L20.1662 36.4802H20.2424V38.9558L19.7321 40.106H18.9932L17.066 35.4747ZM20.6537 40.106V34.7739H21.7278V40.106H20.6537ZM22.2381 39.1005C22.2381 39.395 22.3778 39.6438 22.6571 39.847C22.8957 40.0196 23.1852 40.106 23.5254 40.106V39.169C23.2664 39.169 23.1217 39.1081 23.0913 38.9862C23.0862 38.9558 23.0836 38.9253 23.0836 38.8948V38.7882C23.0887 38.7018 23.1217 38.6434 23.1827 38.613C23.208 38.5977 23.302 38.5698 23.4645 38.5292C23.8606 38.4175 24.1272 38.321 24.2643 38.2397V38.8643C24.2643 39.0167 24.1932 39.1132 24.051 39.1538C24.0155 39.164 23.9774 39.169 23.9368 39.169V40.106C24.2516 40.1009 24.5081 40.0196 24.7061 39.8622C24.894 40.0247 25.1428 40.106 25.4526 40.106V39.1614C25.3155 39.1513 25.2444 39.07 25.2393 38.9177V36.9296C25.2393 36.6503 25.1225 36.3913 24.8889 36.1526C24.6299 35.8936 24.31 35.7641 23.9291 35.7641V36.7011C24.1475 36.7163 24.2592 36.8153 24.2643 36.9981V37.1733C24.2643 37.3155 23.9926 37.478 23.4493 37.6608C22.9821 37.8233 22.7155 37.9223 22.6495 37.9579C22.3803 38.1356 22.2432 38.387 22.2381 38.712V39.1005ZM22.2914 36.8534L23.175 37.1886C23.1801 36.8686 23.2995 36.7061 23.5331 36.7011V35.7641C23.1827 35.7641 22.8754 35.8911 22.6114 36.145C22.4032 36.3583 22.2965 36.5944 22.2914 36.8534ZM25.7954 38.9634L26.7399 38.7882C26.7399 38.9558 26.8262 39.0751 26.9989 39.1462C27.0598 39.1665 27.1157 39.1792 27.1665 39.1843V40.144C26.5774 40.144 26.1686 39.9358 25.9401 39.5194C25.8436 39.3468 25.7954 39.1614 25.7954 38.9634ZM25.8411 36.9524C25.8411 36.4802 26.062 36.1298 26.5038 35.9012C26.7221 35.7844 26.938 35.726 27.1512 35.726V36.6706C26.9024 36.6757 26.778 36.7696 26.778 36.9524C26.778 37.1454 27.0116 37.3155 27.4788 37.4628C27.6514 37.5186 27.8546 37.572 28.0882 37.6227C28.4386 37.6888 28.6874 37.8843 28.8346 38.2093C28.9108 38.3768 28.9489 38.5622 28.9489 38.7653C28.9489 39.2935 28.7407 39.6819 28.3243 39.9308C28.0856 40.0729 27.8139 40.144 27.5092 40.144V39.1843C27.687 39.1843 27.819 39.1259 27.9053 39.0091C27.946 38.9532 27.9663 38.8923 27.9663 38.8263C27.9663 38.6688 27.7733 38.5317 27.3874 38.4149C27.3264 38.3997 27.2325 38.3743 27.1055 38.3388C26.8364 38.2677 26.651 38.2093 26.5495 38.1636C26.1788 37.9757 25.9553 37.6989 25.8792 37.3333C25.8538 37.2114 25.8411 37.0845 25.8411 36.9524ZM27.494 36.6706L27.5016 35.726C27.9587 35.726 28.3268 35.8936 28.6061 36.2288C28.7839 36.4471 28.8727 36.6782 28.8727 36.922L27.9358 37.0819C27.9358 36.8534 27.8139 36.7188 27.5702 36.6782C27.5397 36.6731 27.5143 36.6706 27.494 36.6706ZM29.4212 40.1669V34.652H30.3733V35.9469C30.4749 35.9114 30.612 35.8936 30.7847 35.8936V36.8305C30.6069 36.8305 30.4774 36.9118 30.3962 37.0743C30.386 37.0946 30.3809 37.1098 30.3809 37.12V40.1669H29.4212ZM31.1579 36.8305V35.8936C31.6505 35.8936 32.0212 36.0688 32.27 36.4192C32.4071 36.6071 32.4757 36.8153 32.4757 37.0438V40.1669H31.5235V37.12C31.5235 37.0489 31.4829 36.9804 31.4017 36.9143C31.3356 36.8585 31.2544 36.8305 31.1579 36.8305ZM33.0851 35.1471C33.0851 34.9389 33.179 34.7815 33.3669 34.6749C33.4532 34.6241 33.5446 34.5987 33.6411 34.5987C33.8544 34.5987 34.0144 34.6926 34.121 34.8805C34.1667 34.9669 34.1896 35.0557 34.1896 35.1471C34.1896 35.3604 34.0956 35.5204 33.9077 35.627C33.8214 35.6727 33.7325 35.6956 33.6411 35.6956C33.4228 35.6956 33.2603 35.5991 33.1536 35.4061C33.1079 35.3249 33.0851 35.2385 33.0851 35.1471ZM33.1384 40.106V35.9926H34.1591V40.106H33.1384ZM34.8599 40.106V36.9448C34.8599 36.6909 34.9741 36.4421 35.2027 36.1983C35.482 35.9089 35.8298 35.7616 36.2462 35.7565V36.7696C36.0329 36.795 35.9161 36.894 35.8958 37.0667V40.106H34.8599ZM36.5966 36.7696V35.7565C37.0892 35.7565 37.4777 35.952 37.762 36.343C37.9144 36.5563 37.9906 36.7569 37.9906 36.9448V40.106H36.9546V37.0667C36.9546 36.8991 36.8607 36.8026 36.6728 36.7772C36.6474 36.7721 36.622 36.7696 36.5966 36.7696ZM38.5695 38.9253V36.9296C38.5746 36.6807 38.6888 36.437 38.9123 36.1983C39.1865 35.9139 39.5216 35.7692 39.9177 35.7641V36.7239C39.7705 36.7239 39.6689 36.7874 39.613 36.9143C39.5978 36.9448 39.5902 36.9727 39.5902 36.9981V37.379H40.7252V37.0057C40.7201 36.8178 40.588 36.7239 40.3291 36.7239V35.7641C40.6998 35.7641 41.0248 35.8911 41.3041 36.145C41.5478 36.3684 41.6722 36.6274 41.6773 36.922V38.3616H39.5902V38.9253C39.6257 39.0726 39.7375 39.1538 39.9253 39.169V40.106C39.448 40.106 39.0697 39.9104 38.7904 39.5194C38.6431 39.3112 38.5695 39.1132 38.5695 38.9253ZM40.3291 40.106V39.1767C40.6033 39.1716 40.7785 39.0421 40.8546 38.7882L41.6849 39.1005C41.6088 39.4255 41.4158 39.687 41.106 39.8851C40.8673 40.0323 40.6084 40.106 40.3291 40.106Z" fill="#1B3730"/>
</svg>
