<svg width="79" height="17" viewBox="0 0 79 17" fill="none" xmlns="http://www.w3.org/2000/svg">
<g clip-path="url(#clip0_982_6275)">
<path d="M70.9991 0.654297L72.7952 6.57789H78.6075L73.9053 10.2389L75.7014 16.1625L70.9991 12.5015L66.2968 16.1625L68.0929 10.2389L63.3906 6.57789H69.203L70.9991 0.654297Z" fill="#FF9A00"/>
</g>
<g clip-path="url(#clip1_982_6275)">
<path d="M7.99908 0.654297L9.79518 6.57789H15.6075L10.9053 10.2389L12.7014 16.1625L7.99908 12.5015L3.29679 16.1625L5.09291 10.2389L0.390625 6.57789H6.20297L7.99908 0.654297Z" fill="#FF9A00"/>
</g>
<g clip-path="url(#clip2_982_6275)">
<path d="M39.9991 0.654297L41.7952 6.57789H47.6075L42.9053 10.2389L44.7014 16.1625L39.9991 12.5015L35.2968 16.1625L37.0929 10.2389L32.3906 6.57789H38.203L39.9991 0.654297Z" fill="#FF9A00"/>
</g>
<g clip-path="url(#clip3_982_6275)">
<path d="M23.9991 0.654297L25.7952 6.57789H31.6075L26.9053 10.2389L28.7014 16.1625L23.9991 12.5015L19.2968 16.1625L21.0929 10.2389L16.3906 6.57789H22.203L23.9991 0.654297Z" fill="#FF9A00"/>
</g>
<g clip-path="url(#clip4_982_6275)">
<path d="M55.9991 0.654297L57.7952 6.57789H63.6075L58.9053 10.2389L60.7014 16.1625L55.9991 12.5015L51.2968 16.1625L53.0929 10.2389L48.3906 6.57789H54.203L55.9991 0.654297Z" fill="#FF9A00"/>
</g>
<defs>
<clipPath id="clip0_982_6275">
<rect width="16" height="16.0024" fill="white" transform="translate(63 0.654297)"/>
</clipPath>
<clipPath id="clip1_982_6275">
<rect width="16" height="16.0024" fill="white" transform="translate(0 0.654297)"/>
</clipPath>
<clipPath id="clip2_982_6275">
<rect width="16" height="16.0024" fill="white" transform="translate(32 0.654297)"/>
</clipPath>
<clipPath id="clip3_982_6275">
<rect width="16" height="16.0024" fill="white" transform="translate(16 0.654297)"/>
</clipPath>
<clipPath id="clip4_982_6275">
<rect width="16" height="16.0024" fill="white" transform="translate(48 0.654297)"/>
</clipPath>
</defs>
</svg>
