<svg width="456" height="286" viewBox="0 0 456 286" fill="none" xmlns="http://www.w3.org/2000/svg">
<path d="M17.9345 285.268L17.908 284.675C17.9024 284.544 17.4089 271.535 24.3269 262.882C31.2454 254.229 43.1198 253.005 43.2387 252.994L43.781 252.942L43.8074 253.536C43.813 253.666 44.3065 266.676 37.3885 275.328C30.4701 283.981 18.5956 285.205 18.4767 285.216L17.9345 285.268ZM25.0815 263.601C19.2322 270.917 18.8572 281.471 18.8601 284.11C21.256 283.755 30.7903 281.918 36.6339 274.609C42.4768 267.301 42.8565 256.741 42.8553 254.1C40.458 254.456 30.9248 256.293 25.0815 263.601Z" fill="#F0F0F0"/>
<path d="M28.6447 266.058C27.1522 277.693 18.1659 285.184 18.1659 285.184C18.1659 285.184 11.5993 273.811 13.0918 262.176C14.5842 250.541 23.5706 243.05 23.5706 243.05C23.5706 243.05 30.1372 254.423 28.6447 266.058Z" fill="#F0F0F0"/>
<path d="M456.001 9.26953H167.707V169.695H456.001V9.26953Z" fill="#E6E6E6"/>
<path d="M447.756 23.0254H175.949V156.873H447.756V23.0254Z" fill="white"/>
<path d="M455.876 0H167.582V14.3627H455.876V0Z" fill="#B1D2C7"/>
<path d="M176.684 9.30558C177.938 9.30558 178.954 8.11373 178.954 6.64351C178.954 5.17329 177.938 3.98145 176.684 3.98145C175.43 3.98145 174.414 5.17329 174.414 6.64351C174.414 8.11373 175.43 9.30558 176.684 9.30558Z" fill="white"/>
<path d="M185.301 9.30558C186.555 9.30558 187.571 8.11373 187.571 6.64351C187.571 5.17329 186.555 3.98145 185.301 3.98145C184.048 3.98145 183.031 5.17329 183.031 6.64351C183.031 8.11373 184.048 9.30558 185.301 9.30558Z" fill="white"/>
<path d="M193.915 9.30558C195.168 9.30558 196.185 8.11373 196.185 6.64351C196.185 5.17329 195.168 3.98145 193.915 3.98145C192.661 3.98145 191.645 5.17329 191.645 6.64351C191.645 8.11373 192.661 9.30558 193.915 9.30558Z" fill="white"/>
<path d="M278.677 76.4014H221.047V133.965H278.677V76.4014Z" fill="white"/>
<path d="M278.844 134.161H220.879V76.2051H278.844V134.161ZM221.214 133.768H278.509V76.598H221.214V133.768Z" fill="#3F3D56"/>
<path d="M257.068 87.5996H242.66V133.964H257.068V87.5996Z" fill="#B1D2C7"/>
<path d="M257.068 87.5996H242.66V133.964H257.068V87.5996Z" fill="#B1D2C7"/>
<path opacity="0.2" d="M221.215 80.625V89.964L278.678 94.2788L278.508 82.7549L221.215 80.625Z" fill="black"/>
<path d="M282.027 71.0977H217.695V87.6004H282.027V71.0977Z" fill="white"/>
<path d="M282.194 87.7961H217.527V70.9004H282.194V87.7961ZM217.862 87.4032H281.859V71.2933H217.862L217.862 87.4032Z" fill="#3F3D56"/>
<path d="M257.068 69.5254H242.66V87.4034H257.068V69.5254Z" fill="#B1D2C7"/>
<path d="M248.32 53.9372C252.123 60.5484 248.54 71.1817 248.54 71.1817C248.54 71.1817 238.791 71.0959 234.988 64.4847C231.184 57.8735 234.768 47.2402 234.768 47.2402C234.768 47.2402 244.517 47.3259 248.32 53.9372Z" fill="#B1D2C7"/>
<path d="M250.066 53.9372C246.262 60.5484 249.846 71.1817 249.846 71.1817C249.846 71.1817 259.595 71.0959 263.398 64.4847C267.201 57.8735 263.618 47.2402 263.618 47.2402C263.618 47.2402 253.869 47.3259 250.066 53.9372Z" fill="#B1D2C7"/>
<path d="M239.809 58.9162C240.641 58.9162 241.316 58.1246 241.316 57.148C241.316 56.1715 240.641 55.3799 239.809 55.3799C238.976 55.3799 238.301 56.1715 238.301 57.148C238.301 58.1246 238.976 58.9162 239.809 58.9162Z" fill="#3F3D56"/>
<path d="M248.855 76.7941C249.688 76.7941 250.363 76.0025 250.363 75.026C250.363 74.0494 249.688 73.2578 248.855 73.2578C248.023 73.2578 247.348 74.0494 247.348 75.026C247.348 76.0025 248.023 76.7941 248.855 76.7941Z" fill="#3F3D56"/>
<path d="M248.855 115.497C249.688 115.497 250.363 114.706 250.363 113.729C250.363 112.753 249.688 111.961 248.855 111.961C248.023 111.961 247.348 112.753 247.348 113.729C247.348 114.706 248.023 115.497 248.855 115.497Z" fill="#3F3D56"/>
<path d="M243.829 64.8097C244.385 64.8097 244.835 64.2819 244.835 63.6309C244.835 62.9799 244.385 62.4521 243.829 62.4521C243.274 62.4521 242.824 62.9799 242.824 63.6309C242.824 64.2819 243.274 64.8097 243.829 64.8097Z" fill="#3F3D56"/>
<path d="M258.908 54.7901C259.463 54.7901 259.913 54.2624 259.913 53.6114C259.913 52.9604 259.463 52.4326 258.908 52.4326C258.352 52.4326 257.902 52.9604 257.902 53.6114C257.902 54.2624 258.352 54.7901 258.908 54.7901Z" fill="#3F3D56"/>
<path d="M252.376 82.4923C252.931 82.4923 253.381 81.9645 253.381 81.3135C253.381 80.6625 252.931 80.1348 252.376 80.1348C251.821 80.1348 251.371 80.6625 251.371 81.3135C251.371 81.9645 251.821 82.4923 252.376 82.4923Z" fill="#3F3D56"/>
<path d="M246.345 97.8155C246.9 97.8155 247.35 97.2878 247.35 96.6368C247.35 95.9858 246.9 95.458 246.345 95.458C245.79 95.458 245.34 95.9858 245.34 96.6368C245.34 97.2878 245.79 97.8155 246.345 97.8155Z" fill="#3F3D56"/>
<path d="M251.54 103.12C252.095 103.12 252.545 102.592 252.545 101.941C252.545 101.29 252.095 100.763 251.54 100.763C250.985 100.763 250.535 101.29 250.535 101.941C250.535 102.592 250.985 103.12 251.54 103.12Z" fill="#3F3D56"/>
<path d="M250.365 125.32C250.92 125.32 251.37 124.793 251.37 124.142C251.37 123.491 250.92 122.963 250.365 122.963C249.809 122.963 249.359 123.491 249.359 124.142C249.359 124.793 249.809 125.32 250.365 125.32Z" fill="#3F3D56"/>
<path d="M400.886 103.51H315.364C314.296 103.51 313.271 103.013 312.516 102.127C311.76 101.241 311.336 100.039 311.336 98.7864C311.336 97.5335 311.76 96.332 312.516 95.4461C313.271 94.5602 314.296 94.0625 315.364 94.0625H400.886C401.954 94.0625 402.979 94.5602 403.734 95.4461C404.49 96.332 404.914 97.5335 404.914 98.7864C404.914 100.039 404.49 101.241 403.734 102.127C402.979 103.013 401.954 103.51 400.886 103.51Z" fill="#E4E4E4"/>
<path d="M373.308 87.3393H315.364C314.296 87.3393 313.271 86.8416 312.516 85.9557C311.76 85.0698 311.336 83.8683 311.336 82.6154C311.336 81.3626 311.76 80.1611 312.516 79.2752C313.271 78.3893 314.296 77.8916 315.364 77.8916H373.308C374.377 77.8916 375.401 78.3893 376.157 79.2752C376.912 80.1611 377.336 81.3626 377.336 82.6154C377.336 83.8683 376.912 85.0698 376.157 85.9557C375.401 86.8416 374.377 87.3393 373.308 87.3393Z" fill="#E4E4E4"/>
<path d="M395.028 134.162C397.881 131.244 402.485 128.49 406.195 126.877C402.485 125.263 397.881 122.508 395.028 119.591L397.039 126.111H386.605V127.643H397.039L395.028 134.162Z" fill="#3F3D56"/>
<path d="M123.714 149.774C123.162 149.322 122.532 149.019 121.868 148.884C121.205 148.749 120.524 148.787 119.875 148.994C119.225 149.201 118.622 149.572 118.108 150.082C117.594 150.592 117.181 151.228 116.9 151.945L106.383 151.469L104.578 158.893L119.437 159.32C120.496 159.796 121.666 159.799 122.727 159.33C123.788 158.861 124.665 157.952 125.192 156.775C125.719 155.598 125.86 154.236 125.588 152.945C125.315 151.655 124.649 150.526 123.714 149.774H123.714Z" fill="#FFB6B6"/>
<path d="M115.265 160.249L104.546 161.828L103.189 162.026L81.3807 165.234C81.3807 165.234 74.689 159.578 68.7383 153.603V147.366C68.734 141.246 70.626 135.332 74.0623 130.726C82.1164 135.308 87.7403 146.05 87.7403 146.05L101.685 147.647L103.08 147.807L111.745 148.798L115.265 160.249Z" fill="#E4E4E4"/>
<path d="M70.7087 210.329H90.8724C90.8724 211.342 112.914 212.165 112.914 212.165C113.4 212.594 113.843 213.086 114.235 213.633C115.412 215.279 116.055 217.359 116.051 219.506V220.975C116.05 223.408 115.225 225.742 113.758 227.463C112.29 229.184 110.3 230.151 108.225 230.152H70.7087C68.6337 230.15 66.6442 229.182 65.1769 227.462C63.7097 225.741 62.8846 223.408 62.8828 220.975V219.506C62.8857 217.073 63.7111 214.741 65.1781 213.021C66.6451 211.3 68.634 210.332 70.7087 210.329Z" fill="#3F3D56"/>
<path d="M93.51 229.787H85.3711V284.878H93.51V229.787Z" fill="#3F3D56"/>
<path d="M116.672 284.543C116.672 285.574 104.339 284.942 89.1251 284.942C73.9113 284.942 61.5781 285.574 61.5781 284.543C61.5781 283.512 73.9113 275.334 89.1251 275.334C104.339 275.334 116.672 283.512 116.672 284.543Z" fill="#3F3D56"/>
<path d="M122.142 278.248H128.199L131.08 250.85H122.141L122.142 278.248Z" fill="#FFB6B6"/>
<path d="M120.594 275.929L132.523 275.929H132.523C134.539 275.929 136.473 276.868 137.899 278.54C139.324 280.212 140.125 282.479 140.125 284.844V285.133L120.594 285.134L120.594 275.929Z" fill="#2F2E41"/>
<path d="M140.044 278.248H146.101L148.983 250.85H140.043L140.044 278.248Z" fill="#FFB6B6"/>
<path d="M138.5 275.929L150.429 275.929H150.429C152.446 275.929 154.379 276.868 155.805 278.54C157.23 280.212 158.031 282.479 158.032 284.844V285.133L138.5 285.134L138.5 275.929Z" fill="#2F2E41"/>
<path d="M89.2155 120.512C95.0321 120.512 99.7474 114.982 99.7474 108.161C99.7474 101.34 95.0321 95.8105 89.2155 95.8105C83.3989 95.8105 78.6836 101.34 78.6836 108.161C78.6836 114.982 83.3989 120.512 89.2155 120.512Z" fill="#FFB6B6"/>
<path d="M90.4028 102.27C90.4028 102.27 94.149 96.1637 97.6385 102.273C101.128 108.382 104.579 100.971 103.777 98.6435C102.975 96.3155 103.186 96.035 97.3735 93.0118C91.5605 89.9887 80.3849 83.9096 77.115 98.9968C73.8451 114.084 80.5359 114.369 80.5359 114.369C80.5359 114.369 81.901 99.7084 83.4765 103.836L85.052 107.964L86.6707 108.641L90.4028 102.27Z" fill="#2F2E41"/>
<path d="M68.7398 192.784C68.7398 192.784 65.206 214.697 78.6515 217.487C92.0969 220.278 111.506 222.239 111.506 222.239L120.222 269.926L131.931 268.7C131.931 268.7 130.374 211.295 126.544 206.804C122.714 202.313 98.5087 188.865 98.5087 188.865L68.7398 192.784Z" fill="#2F2E41"/>
<path d="M94.9974 183.6L100.878 190.518C100.878 190.518 143.338 198.538 144.976 210.038C147.449 227.401 150.37 265.158 150.37 265.158L137.604 264.035L132.598 221.116L112.172 215.667L88.9336 200.816L94.9974 183.6Z" fill="#2F2E41"/>
<path d="M100.143 189.504C100.143 189.504 67.3432 204.573 68.0624 195.709C68.8963 185.44 68.7383 180.966 68.7383 180.966V147.365C68.7396 142.775 69.8051 138.271 71.8208 134.336C73.8365 130.4 76.7266 127.182 80.182 125.024L91.255 125.242L94.6717 130.552C97.4182 146.688 97.9631 148.605 97.9631 148.605L100.252 155.954L100.731 160.549L99.053 170.333L100.143 189.504Z" fill="#E4E4E4"/>
<path d="M127.076 149.809L127.012 149.786L128.089 145.722C128.433 144.423 128.255 143.204 127.691 142.998L123.951 141.635C123.387 141.429 122.651 142.316 122.307 143.614L116.398 165.906C116.054 167.205 116.232 168.424 116.796 168.63L120.536 169.993C121.1 170.199 121.836 169.313 122.18 168.014L126.245 152.678L126.31 152.701L127.076 149.809Z" fill="#B1D2C7"/>
<path d="M127.619 150.449L127.555 150.425L128.632 146.362C128.976 145.063 128.798 143.843 128.234 143.638L124.494 142.275C123.93 142.069 123.194 142.955 122.85 144.254L116.941 166.546C116.597 167.844 116.775 169.064 117.339 169.27L121.078 170.633C121.643 170.838 122.379 169.952 122.723 168.653L126.788 153.317L126.853 153.341L127.619 150.449Z" fill="#3F3D56"/>
<path d="M125.188 150.12C125.399 149.325 125.29 148.577 124.944 148.452C124.598 148.326 124.147 148.868 123.937 149.664C123.726 150.46 123.835 151.207 124.18 151.333C124.526 151.459 124.977 150.916 125.188 150.12Z" fill="#D0CDE1"/>
<path d="M126.093 159.359C125.541 158.907 124.911 158.604 124.247 158.469C123.584 158.334 122.903 158.372 122.254 158.579C121.604 158.786 121.001 159.157 120.487 159.667C119.973 160.177 119.56 160.813 119.279 161.53L108.762 161.054L106.957 168.478L121.816 168.905C122.875 169.381 124.045 169.384 125.106 168.915C126.167 168.446 127.044 167.537 127.571 166.36C128.098 165.183 128.239 163.82 127.967 162.53C127.694 161.24 127.028 160.111 126.093 159.359H126.093Z" fill="#FFB6B6"/>
<path d="M117.646 169.834L105.57 171.61L83.7621 174.818C83.7621 174.818 75.1139 167.508 68.7383 160.727V147.365C68.7375 144.265 69.2233 141.191 70.1714 138.297C81.419 139.019 90.1214 155.634 90.1214 155.634L104.067 157.232L114.126 158.382L117.646 169.834Z" fill="#E4E4E4"/>
<path d="M208.166 286H0.544936C0.40041 286 0.261803 285.932 0.159608 285.813C0.0574124 285.693 0 285.53 0 285.361C0 285.191 0.0574124 285.029 0.159608 284.909C0.261803 284.789 0.40041 284.722 0.544936 284.722H208.166C208.31 284.722 208.449 284.789 208.551 284.909C208.653 285.029 208.711 285.191 208.711 285.361C208.711 285.53 208.653 285.693 208.551 285.813C208.449 285.932 208.31 286 208.166 286Z" fill="#CACACA"/>
</svg>
