<svg width="351" height="286" viewBox="0 0 351 286" fill="none" xmlns="http://www.w3.org/2000/svg">
<g clip-path="url(#clip0_972_5992)">
<path d="M80.2272 85.6722C80.97 86.1956 81.6994 86.7286 82.4276 87.2791C90.1209 109.199 94.5134 132.424 95.4225 155.989C95.5345 158.714 95.5914 161.435 95.593 164.152C95.6593 184.525 93.0413 204.796 87.8254 224.294C87.5501 225.32 87.2689 226.342 86.9818 227.361C86.776 228.091 86.5665 228.829 86.3392 229.554C86.0976 229.925 85.8595 230.29 85.6216 230.655C85.6048 230.671 85.5902 230.698 85.5731 230.714C85.4772 230.862 85.3813 231.009 85.2951 231.153C84.8836 231.779 84.4661 232.401 84.0547 233.026L84.4012 233.052L85.2698 233.115L85.2662 233.121C84.9746 233.115 84.677 233.104 84.383 233.086C84.2762 233.086 84.1598 233.089 84.0507 233.079C83.9534 233.077 83.8503 233.07 83.753 233.068C71.2294 232.684 58.4129 231.976 47.0165 226.176C35.0882 220.1 24.9697 206.964 25.4839 192.169C25.5563 190.231 25.8159 188.308 26.2582 186.434C26.4428 185.652 26.6609 184.883 26.8946 184.116C28.3171 179.418 30.8186 175.235 34.142 171.995C37.4653 168.755 41.4907 166.576 45.8041 165.682C50.1175 164.788 54.5634 165.211 58.6846 166.908C62.8058 168.605 66.4536 171.514 69.253 175.336C65.8345 160.122 51.1588 152.358 37.9409 147.638C24.7132 142.921 9.83078 137.986 3.07287 124.278C-0.700205 116.649 -0.791053 107.761 1.67093 99.554C1.74588 99.3088 1.8246 99.0566 1.90923 98.8086C5.00996 89.1518 11.2141 81.1757 19.2819 76.4739C34.3981 67.9983 52.7662 70.9888 68.2547 78.5536C72.3986 80.5804 76.401 82.9601 80.2272 85.6722V85.6722Z" fill="#F2F2F2"/>
<path d="M36.9047 184.178C48.7862 185.415 60.0008 190.948 68.8911 199.96C76.4627 207.721 82.0498 217.648 85.0657 228.697C85.2412 229.329 85.401 229.96 85.5511 230.594C85.8513 229.947 86.1429 229.285 86.4311 228.63C86.6166 228.21 86.8058 227.784 86.9853 227.36C86.7795 228.091 86.57 228.828 86.3427 229.553C86.1011 229.925 85.8631 230.29 85.6252 230.654C85.6083 230.67 85.5937 230.697 85.5767 230.714C85.4808 230.861 85.3849 231.008 85.2987 231.153C84.8872 231.778 84.4696 232.4 84.0582 233.025L84.4047 233.052L85.2733 233.114L85.2698 233.121C84.9781 233.114 84.6806 233.103 84.3866 233.085C84.2797 233.086 84.1633 233.089 84.0542 233.078C84.0183 232.886 83.9729 232.697 83.9276 232.507C80.8492 218.236 73.314 205.709 62.7142 197.24C52.1144 188.771 39.1662 184.932 26.2617 186.434C26.4463 185.651 26.6645 184.882 26.8982 184.115C30.229 183.807 33.5772 183.828 36.9047 184.178Z" fill="white"/>
<path d="M76.3794 127.903C81.1467 131.948 85.3666 136.76 88.9055 142.186C90.7494 145.079 92.3514 148.16 93.6907 151.389C94.3256 152.887 94.9037 154.43 95.424 155.989C95.536 158.714 95.5929 161.435 95.5945 164.152C95.1526 162.098 94.6142 160.072 93.9814 158.083C93.6522 156.991 93.2867 155.921 92.8983 154.863C88.5417 143.012 80.6487 133.655 71.3397 126.541C61.3645 118.929 50.1188 113.215 38.7218 108.966C27.0419 104.591 14.9324 101.854 2.66432 100.816C2.38726 100.791 2.12952 100.645 1.94479 100.41C1.76005 100.175 1.66255 99.868 1.67258 99.5535C1.66316 99.2793 1.74867 99.0118 1.91088 98.8081C1.99706 98.7125 2.10183 98.6411 2.21679 98.5997C2.33176 98.5583 2.4537 98.548 2.57281 98.5696C4.08674 98.6979 5.59675 98.8334 7.10667 99.0147C19.67 100.48 32.0237 103.709 43.8832 108.628C55.3317 113.359 66.6622 119.494 76.3794 127.903Z" fill="white"/>
<path d="M14.1289 62.3606C16.4481 62.3606 18.3281 60.2315 18.3281 57.6051C18.3281 54.9787 16.4481 52.8496 14.1289 52.8496C11.8097 52.8496 9.92969 54.9787 9.92969 57.6051C9.92969 60.2315 11.8097 62.3606 14.1289 62.3606Z" fill="#F2F2F2"/>
<path d="M272.1 101.506H81.4805V285.372H272.1V101.506Z" fill="white"/>
<path d="M272.653 286H80.9258V100.879H272.653V286ZM82.034 284.745H271.545V102.134H82.034V284.745Z" fill="#3F3D56"/>
<path d="M200.62 137.275H152.965V285.372H200.62V137.275Z" fill="#B1D2C7"/>
<path d="M200.62 137.275H152.965V285.372H200.62V137.275Z" fill="#B1D2C7"/>
<path opacity="0.2" d="M82.0352 114.998V144.83L272.1 158.611L271.54 121.802L82.0352 114.998Z" fill="black"/>
<path d="M283.183 84.5635H70.3984V137.276H283.183V84.5635Z" fill="white"/>
<path d="M283.736 137.903H69.8438V83.9355H283.736V137.903ZM70.952 136.648H282.628V85.1906H70.952V136.648Z" fill="#3F3D56"/>
<path d="M200.62 79.543H152.965V136.648H200.62V79.543Z" fill="#B1D2C7"/>
<path d="M171.69 29.7525C184.27 50.8699 172.417 84.8342 172.417 84.8342C172.417 84.8342 140.17 84.5604 127.591 63.443C115.011 42.3256 126.863 8.36133 126.863 8.36133C126.863 8.36133 159.111 8.63509 171.69 29.7525Z" fill="#B1D2C7"/>
<path d="M177.462 29.7525C164.882 50.8699 176.734 84.8342 176.734 84.8342C176.734 84.8342 208.982 84.5604 221.561 63.443C234.141 42.3256 222.289 8.36133 222.289 8.36133C222.289 8.36133 190.041 8.63509 177.462 29.7525Z" fill="#B1D2C7"/>
<path d="M143.546 45.6559C146.3 45.6559 148.533 43.1273 148.533 40.0081C148.533 36.8889 146.3 34.3604 143.546 34.3604C140.791 34.3604 138.559 36.8889 138.559 40.0081C138.559 43.1273 140.791 45.6559 143.546 45.6559Z" fill="#3F3D56"/>
<path d="M173.468 102.761C176.222 102.761 178.455 100.233 178.455 97.1136C178.455 93.9944 176.222 91.4658 173.468 91.4658C170.713 91.4658 168.48 93.9944 168.48 97.1136C168.48 100.233 170.713 102.761 173.468 102.761Z" fill="#3F3D56"/>
<path d="M173.468 226.385C176.222 226.385 178.455 223.857 178.455 220.738C178.455 217.618 176.222 215.09 173.468 215.09C170.713 215.09 168.48 217.618 168.48 220.738C168.48 223.857 170.713 226.385 173.468 226.385Z" fill="#3F3D56"/>
<path d="M156.84 64.4825C158.677 64.4825 160.165 62.7968 160.165 60.7173C160.165 58.6379 158.677 56.9521 156.84 56.9521C155.004 56.9521 153.516 58.6379 153.516 60.7173C153.516 62.7968 155.004 64.4825 156.84 64.4825Z" fill="#3F3D56"/>
<path d="M206.715 32.4786C208.552 32.4786 210.04 30.7929 210.04 28.7134C210.04 26.634 208.552 24.9482 206.715 24.9482C204.879 24.9482 203.391 26.634 203.391 28.7134C203.391 30.7929 204.879 32.4786 206.715 32.4786Z" fill="#3F3D56"/>
<path d="M185.102 120.96C186.938 120.96 188.427 119.274 188.427 117.195C188.427 115.115 186.938 113.43 185.102 113.43C183.266 113.43 181.777 115.115 181.777 117.195C181.777 119.274 183.266 120.96 185.102 120.96Z" fill="#3F3D56"/>
<path d="M165.157 169.907C166.993 169.907 168.482 168.222 168.482 166.142C168.482 164.063 166.993 162.377 165.157 162.377C163.321 162.377 161.832 164.063 161.832 166.142C161.832 168.222 163.321 169.907 165.157 169.907Z" fill="#3F3D56"/>
<path d="M182.329 186.851C184.165 186.851 185.653 185.165 185.653 183.085C185.653 181.006 184.165 179.32 182.329 179.32C180.492 179.32 179.004 181.006 179.004 183.085C179.004 185.165 180.492 186.851 182.329 186.851Z" fill="#3F3D56"/>
<path d="M178.454 257.761C180.29 257.761 181.778 256.075 181.778 253.996C181.778 251.916 180.29 250.23 178.454 250.23C176.617 250.23 175.129 251.916 175.129 253.996C175.129 256.075 176.617 257.761 178.454 257.761Z" fill="#3F3D56"/>
<path d="M344.808 187.834H243.383V285.666H344.808V187.834Z" fill="white"/>
<path d="M345.105 286H243.09V187.5H345.105V286ZM243.68 285.332H344.515V188.168H243.68V285.332Z" fill="#3F3D56"/>
<path d="M306.774 206.866H281.418V285.666H306.774V206.866Z" fill="#B1D2C7"/>
<path d="M306.774 206.866H281.418V285.666H306.774V206.866Z" fill="#B1D2C7"/>
<path opacity="0.2" d="M243.676 195.013V210.885L344.806 218.218L344.508 198.633L243.676 195.013Z" fill="black"/>
<path d="M350.707 178.818H237.488V206.866H350.707V178.818Z" fill="white"/>
<path d="M351 207.201H237.191V178.485H351V207.201ZM237.781 206.533H350.41V179.153H237.781V206.533Z" fill="#3F3D56"/>
<path d="M306.774 176.147H281.418V206.532H306.774V176.147Z" fill="#B1D2C7"/>
<path d="M291.383 149.654C298.076 160.891 291.77 178.962 291.77 178.962C291.77 178.962 274.612 178.817 267.918 167.581C261.225 156.344 267.531 138.272 267.531 138.272C267.531 138.272 284.69 138.418 291.383 149.654Z" fill="#B1D2C7"/>
<path d="M294.454 149.654C287.76 160.891 294.067 178.962 294.067 178.962C294.067 178.962 311.225 178.817 317.918 167.581C324.611 156.344 318.305 138.272 318.305 138.272C318.305 138.272 301.147 138.418 294.454 149.654Z" fill="#B1D2C7"/>
<path d="M276.407 158.118C277.873 158.118 279.061 156.772 279.061 155.113C279.061 153.453 277.873 152.107 276.407 152.107C274.942 152.107 273.754 153.453 273.754 155.113C273.754 156.772 274.942 158.118 276.407 158.118Z" fill="#3F3D56"/>
<path d="M292.325 188.502C293.791 188.502 294.979 187.157 294.979 185.497C294.979 183.838 293.791 182.492 292.325 182.492C290.86 182.492 289.672 183.838 289.672 185.497C289.672 187.157 290.86 188.502 292.325 188.502Z" fill="#3F3D56"/>
<path d="M292.325 254.28C293.791 254.28 294.979 252.934 294.979 251.275C294.979 249.615 293.791 248.27 292.325 248.27C290.86 248.27 289.672 249.615 289.672 251.275C289.672 252.934 290.86 254.28 292.325 254.28Z" fill="#3F3D56"/>
<path d="M283.48 168.134C284.457 168.134 285.249 167.237 285.249 166.13C285.249 165.024 284.457 164.127 283.48 164.127C282.503 164.127 281.711 165.024 281.711 166.13C281.711 167.237 282.503 168.134 283.48 168.134Z" fill="#3F3D56"/>
<path d="M310.015 151.104C310.992 151.104 311.784 150.207 311.784 149.101C311.784 147.995 310.992 147.098 310.015 147.098C309.038 147.098 308.246 147.995 308.246 149.101C308.246 150.207 309.038 151.104 310.015 151.104Z" fill="#3F3D56"/>
<path d="M298.515 198.185C299.492 198.185 300.284 197.288 300.284 196.181C300.284 195.075 299.492 194.178 298.515 194.178C297.538 194.178 296.746 195.075 296.746 196.181C296.746 197.288 297.538 198.185 298.515 198.185Z" fill="#3F3D56"/>
<path d="M287.906 224.229C288.883 224.229 289.675 223.332 289.675 222.226C289.675 221.12 288.883 220.223 287.906 220.223C286.929 220.223 286.137 221.12 286.137 222.226C286.137 223.332 286.929 224.229 287.906 224.229Z" fill="#3F3D56"/>
<path d="M297.042 233.244C298.02 233.244 298.812 232.347 298.812 231.241C298.812 230.134 298.02 229.237 297.042 229.237C296.065 229.237 295.273 230.134 295.273 231.241C295.273 232.347 296.065 233.244 297.042 233.244Z" fill="#3F3D56"/>
<path d="M294.98 270.975C295.957 270.975 296.749 270.078 296.749 268.971C296.749 267.865 295.957 266.968 294.98 266.968C294.003 266.968 293.211 267.865 293.211 268.971C293.211 270.078 294.003 270.975 294.98 270.975Z" fill="#3F3D56"/>
<path d="M170.289 240.593C171.175 238.476 167.067 234.168 161.113 230.97C155.159 227.772 149.613 226.895 148.726 229.012C147.84 231.129 151.948 235.437 157.902 238.635C163.857 241.834 169.402 242.71 170.289 240.593Z" fill="#2F2E41"/>
<path d="M219.431 262.396C221.017 260.892 218.873 255.034 214.643 249.312C210.412 243.59 205.697 240.17 204.11 241.674C202.524 243.178 204.668 249.036 208.898 254.758C213.129 260.481 217.844 263.9 219.431 262.396Z" fill="#2F2E41"/>
<path d="M186.388 274.369C199.568 274.369 210.253 262.269 210.253 247.342C210.253 232.416 199.568 220.316 186.388 220.316C173.208 220.316 162.523 232.416 162.523 247.342C162.523 262.269 173.208 274.369 186.388 274.369Z" fill="#2F2E41"/>
<path d="M196.488 268.553H189.238V283.263H196.488V268.553Z" fill="#2F2E41"/>
<path d="M181.988 268.553H174.738V283.263H181.988V268.553Z" fill="#2F2E41"/>
<path d="M190.444 286C193.781 286 196.486 284.851 196.486 283.434C196.486 282.017 193.781 280.868 190.444 280.868C187.107 280.868 184.402 282.017 184.402 283.434C184.402 284.851 187.107 286 190.444 286Z" fill="#2F2E41"/>
<path d="M175.948 285.658C179.285 285.658 181.99 284.509 181.99 283.092C181.99 281.675 179.285 280.526 175.948 280.526C172.611 280.526 169.906 281.675 169.906 283.092C169.906 284.509 172.611 285.658 175.948 285.658Z" fill="#2F2E41"/>
<path d="M178.892 213.37C181.023 203.651 190.429 197.932 199.902 200.596C209.374 203.26 215.325 213.297 213.194 223.016C211.064 232.734 203.994 232.766 194.521 230.102C185.049 227.439 176.761 223.089 178.892 213.37Z" fill="#E6E6E6"/>
<path d="M182.816 250.651C187.21 250.651 190.772 246.617 190.772 241.64C190.772 236.664 187.21 232.63 182.816 232.63C178.422 232.63 174.859 236.664 174.859 241.64C174.859 246.617 178.422 250.651 182.816 250.651Z" fill="white"/>
<path d="M179.547 241.414C181.011 241.414 182.199 240.069 182.199 238.411C182.199 236.752 181.011 235.407 179.547 235.407C178.082 235.407 176.895 236.752 176.895 238.411C176.895 240.069 178.082 241.414 179.547 241.414Z" fill="#3F3D56"/>
<path d="M187.808 260.412C187.933 261.188 187.921 261.985 187.774 262.756C187.627 263.527 187.348 264.258 186.951 264.906C186.555 265.555 186.05 266.109 185.464 266.536C184.879 266.964 184.225 267.257 183.54 267.398C182.854 267.539 182.151 267.526 181.47 267.36C180.789 267.193 180.144 266.877 179.571 266.428C178.998 265.979 178.509 265.407 178.132 264.744C177.754 264.081 177.496 263.34 177.371 262.564V262.564L177.369 262.552C176.847 259.288 179.076 258.133 181.959 257.542C184.841 256.951 187.286 257.148 187.808 260.412Z" fill="white"/>
<path d="M234.639 43.8012C240.73 40.9522 245.027 36.8871 244.237 34.7217C243.448 32.5563 237.87 33.1105 231.779 35.9595C225.688 38.8086 221.39 42.8736 222.18 45.039C222.97 47.2045 228.548 46.6503 234.639 43.8012Z" fill="#2F2E41"/>
<path d="M293.13 62.4536C294.716 60.9496 292.573 55.0916 288.342 49.3694C284.111 43.6472 279.396 40.2277 277.81 41.7318C276.223 43.2358 278.367 49.0938 282.598 54.816C286.828 60.5382 291.544 63.9577 293.13 62.4536Z" fill="#2F2E41"/>
<path d="M260.083 74.4261C273.264 74.4261 283.948 62.3261 283.948 47.4001C283.948 32.474 273.264 20.374 260.083 20.374C246.903 20.374 236.219 32.474 236.219 47.4001C236.219 62.3261 246.903 74.4261 260.083 74.4261Z" fill="#2F2E41"/>
<path d="M270.188 68.6104H262.938V83.3207H270.188V68.6104Z" fill="#2F2E41"/>
<path d="M255.688 68.6104H248.438V83.3207H255.688V68.6104Z" fill="#2F2E41"/>
<path d="M264.143 86.0583C267.48 86.0583 270.185 84.9096 270.185 83.4925C270.185 82.0755 267.48 80.9268 264.143 80.9268C260.807 80.9268 258.102 82.0755 258.102 83.4925C258.102 84.9096 260.807 86.0583 264.143 86.0583Z" fill="#2F2E41"/>
<path d="M249.643 85.7155C252.98 85.7155 255.685 84.5668 255.685 83.1497C255.685 81.7327 252.98 80.584 249.643 80.584C246.307 80.584 243.602 81.7327 243.602 83.1497C243.602 84.5668 246.307 85.7155 249.643 85.7155Z" fill="#2F2E41"/>
<path d="M252.591 13.4276C254.722 3.70909 264.129 -2.01007 273.601 0.653543C283.073 3.31716 289.025 13.3549 286.894 23.0735C284.763 32.792 277.693 32.8234 268.221 30.1598C258.748 27.4961 250.46 23.1462 252.591 13.4276Z" fill="#B1D2C7"/>
<path d="M256.519 50.7075C260.913 50.7075 264.476 46.6733 264.476 41.697C264.476 36.7206 260.913 32.6865 256.519 32.6865C252.125 32.6865 248.562 36.7206 248.562 41.697C248.562 46.6733 252.125 50.7075 256.519 50.7075Z" fill="white"/>
<path d="M253.25 45.8644C254.715 45.8644 255.902 44.5197 255.902 42.8609C255.902 41.2021 254.715 39.8574 253.25 39.8574C251.785 39.8574 250.598 41.2021 250.598 42.8609C250.598 44.5197 251.785 45.8644 253.25 45.8644Z" fill="#3F3D56"/>
<path d="M261.511 60.4699C261.763 62.0373 261.455 63.6539 260.654 64.9639C259.854 66.274 258.627 67.1703 257.243 67.4556C255.859 67.741 254.431 67.392 253.274 66.4854C252.118 65.5789 251.326 64.189 251.074 62.6216L251.072 62.61C250.55 59.3455 252.779 58.1903 255.662 57.5994C258.544 57.0084 260.989 57.2055 261.511 60.4699Z" fill="white"/>
<path d="M55.9038 274.369C69.0839 274.369 79.7685 262.269 79.7685 247.343C79.7685 232.417 69.0839 220.317 55.9038 220.317C42.7237 220.317 32.0391 232.417 32.0391 247.343C32.0391 262.269 42.7237 274.369 55.9038 274.369Z" fill="#2F2E41"/>
<path d="M52.2774 268.553H45.0273V283.263H52.2774V268.553Z" fill="#2F2E41"/>
<path d="M66.7774 268.553H59.5273V283.263H66.7774V268.553Z" fill="#2F2E41"/>
<path d="M51.0691 286C54.4058 286 57.1108 284.851 57.1108 283.434C57.1108 282.017 54.4058 280.868 51.0691 280.868C47.7323 280.868 45.0273 282.017 45.0273 283.434C45.0273 284.851 47.7323 286 51.0691 286Z" fill="#2F2E41"/>
<path d="M65.5691 285.658C68.9058 285.658 71.6108 284.509 71.6108 283.092C71.6108 281.675 68.9058 280.526 65.5691 280.526C62.2323 280.526 59.5273 281.675 59.5273 283.092C59.5273 284.509 62.2323 285.658 65.5691 285.658Z" fill="#2F2E41"/>
<path d="M32.7552 222.21C30.8282 212.437 36.9879 202.562 46.5133 200.153C56.0388 197.744 65.3227 203.714 67.2497 213.487C69.1766 223.26 62.8638 226.865 53.3384 229.273C43.813 231.682 34.6821 231.983 32.7552 222.21Z" fill="#B1D2C7"/>
<path d="M81.6171 235.532C86.7854 229.675 89.6588 223.437 88.0351 221.6C86.4113 219.762 80.9053 223.021 75.737 228.878C70.5686 234.736 67.6952 240.974 69.3189 242.811C70.9427 244.649 76.4487 241.39 81.6171 235.532Z" fill="#2F2E41"/>
<path d="M36.6679 244.694C38.2917 242.857 35.4182 236.619 30.2499 230.762C25.0816 224.904 19.5755 221.645 17.9518 223.483C16.328 225.32 19.2015 231.558 24.3698 237.415C29.5381 243.273 35.0442 246.532 36.6679 244.694Z" fill="#2F2E41"/>
<path d="M54.9024 252.749C59.407 252.749 63.0587 248.613 63.0587 243.512C63.0587 238.411 59.407 234.275 54.9024 234.275C50.3978 234.275 46.7461 238.411 46.7461 243.512C46.7461 248.613 50.3978 252.749 54.9024 252.749Z" fill="white"/>
<path d="M54.8985 246.591C56.4 246.591 57.6172 245.213 57.6172 243.513C57.6172 241.812 56.4 240.434 54.8985 240.434C53.3969 240.434 52.1797 241.812 52.1797 243.513C52.1797 245.213 53.3969 246.591 54.8985 246.591Z" fill="#3F3D56"/>
<path d="M61.3745 260.596C61.4993 261.372 61.4878 262.168 61.3408 262.939C61.1938 263.711 60.9142 264.441 60.5178 265.09C60.1214 265.739 59.6161 266.293 59.0307 266.72C58.4453 267.148 57.7913 267.44 57.106 267.582C56.4206 267.723 55.7175 267.71 55.0366 267.543C54.3557 267.377 53.7104 267.06 53.1376 266.611C52.5648 266.163 52.0757 265.59 51.6982 264.927C51.3207 264.264 51.0621 263.524 50.9374 262.748V262.748L50.9355 262.736C50.4137 259.472 52.6424 258.316 55.5251 257.725C58.4077 257.134 60.8527 257.331 61.3745 260.596Z" fill="white"/>
</g>
<defs>
<clipPath id="clip0_972_5992">
<rect width="351" height="286" fill="white"/>
</clipPath>
</defs>
</svg>
