<svg width="41" height="20" viewBox="0 0 41 20" fill="none" xmlns="http://www.w3.org/2000/svg">
<path d="M4.63672 15.1562C3.49089 15.1562 2.55859 14.7812 1.83984 14.0312C1.12109 13.276 0.761719 12.2682 0.761719 11.0078V10.7422C0.761719 9.90365 0.920573 9.15625 1.23828 8.5C1.5612 7.83854 2.00911 7.32292 2.58203 6.95312C3.16016 6.57812 3.78516 6.39062 4.45703 6.39062C5.55599 6.39062 6.41016 6.7526 7.01953 7.47656C7.62891 8.20052 7.93359 9.23698 7.93359 10.5859V11.1875H2.20703C2.22786 12.0208 2.47005 12.6953 2.93359 13.2109C3.40234 13.7214 3.99609 13.9766 4.71484 13.9766C5.22526 13.9766 5.65755 13.8724 6.01172 13.6641C6.36589 13.4557 6.67578 13.1797 6.94141 12.8359L7.82422 13.5234C7.11589 14.612 6.05339 15.1562 4.63672 15.1562ZM4.45703 7.57812C3.8737 7.57812 3.38411 7.79167 2.98828 8.21875C2.59245 8.64062 2.34766 9.23438 2.25391 10H6.48828V9.89062C6.44661 9.15625 6.2487 8.58854 5.89453 8.1875C5.54036 7.78125 5.0612 7.57812 4.45703 7.57812ZM10.9805 6.54688L11.0273 7.60938C11.6732 6.79688 12.5169 6.39062 13.5586 6.39062C15.3451 6.39062 16.2461 7.39844 16.2617 9.41406V15H14.8164V9.40625C14.8112 8.79688 14.6706 8.34635 14.3945 8.05469C14.1237 7.76302 13.6992 7.61719 13.1211 7.61719C12.6523 7.61719 12.2409 7.74219 11.8867 7.99219C11.5326 8.24219 11.2565 8.57031 11.0586 8.97656V15H9.61328V6.54688H10.9805ZM18.7305 15.9766H17.4883L22.2383 3.625H23.4727L18.7305 15.9766Z" fill="white"/>
<path d="M0.0351562 16.5625H23.9414V17.3438H0.0351562V16.5625Z" fill="white"/>
<path d="M29.5859 14.2686C29.0938 14.8473 28.3714 15.1367 27.4189 15.1367C26.6305 15.1367 26.029 14.9089 25.6143 14.4531C25.2041 13.9928 24.9967 13.3138 24.9922 12.416V7.60352H26.2568V12.3818C26.2568 13.5029 26.7126 14.0635 27.624 14.0635C28.5902 14.0635 29.2327 13.7035 29.5518 12.9834V7.60352H30.8164V15H29.6133L29.5859 14.2686ZM37.3105 15C37.2376 14.8542 37.1784 14.5944 37.1328 14.2207C36.5449 14.8314 35.8431 15.1367 35.0273 15.1367C34.2982 15.1367 33.6989 14.9316 33.2295 14.5215C32.7646 14.1068 32.5322 13.5827 32.5322 12.9492C32.5322 12.179 32.8239 11.582 33.4072 11.1582C33.9951 10.7298 34.82 10.5156 35.8818 10.5156H37.1123V9.93457C37.1123 9.49251 36.9801 9.1416 36.7158 8.88184C36.4515 8.61751 36.0618 8.48535 35.5469 8.48535C35.0957 8.48535 34.7174 8.59928 34.4121 8.82715C34.1068 9.05501 33.9541 9.33073 33.9541 9.6543H32.6826C32.6826 9.28516 32.8125 8.92969 33.0723 8.58789C33.3366 8.24154 33.6921 7.9681 34.1387 7.76758C34.5898 7.56706 35.0843 7.4668 35.6221 7.4668C36.4743 7.4668 37.1419 7.68099 37.625 8.10938C38.1081 8.5332 38.3587 9.11882 38.377 9.86621V13.2705C38.377 13.9495 38.4635 14.4896 38.6367 14.8906V15H37.3105ZM35.2119 14.0361C35.6084 14.0361 35.9844 13.9336 36.3398 13.7285C36.6953 13.5234 36.9528 13.2568 37.1123 12.9287V11.4111H36.1211C34.5716 11.4111 33.7969 11.8646 33.7969 12.7715C33.7969 13.168 33.929 13.4779 34.1934 13.7012C34.4577 13.9245 34.7972 14.0361 35.2119 14.0361Z" fill="white"/>
</svg>
