<svg width="220" height="40" viewBox="0 0 220 40" fill="none" xmlns="http://www.w3.org/2000/svg">
<path d="M33.8945 0.380859H60.3923V8.59108H44.3822V15.304H59.4205V23.6392H44.3822V31.2024H61.301V39.2971H33.8945V0.380859Z" fill="#C11313"/>
<path d="M98.543 0.380859H109.073L121.554 21.8267V0.380859H129.228V39.5096H118.652L106.233 18.3863V39.2971H98.543V0.380859Z" fill="#C11313"/>
<path d="M134.199 0.380859H145.028V39.297H134.199V0.380859Z" fill="#C11313"/>
<path d="M149.977 0.178711H160.505L172.984 21.6264V0.178711H180.659V39.3114H170.084L157.667 18.1842V39.0949H149.977V0.178711Z" fill="#C11313"/>
<path d="M81.8026 15.6322H75.7327V8.07272H81.5612C81.5612 8.07272 84.3493 8.5706 84.1678 12.1657C83.9863 15.7702 81.8026 15.6322 81.8026 15.6322ZM94.2878 36.9457C94.0464 35.9387 93.9849 36.5877 94.1065 30.4715C94.228 24.3534 93.136 22.7702 93.136 22.7702C91.7413 19.8221 89.8622 19.0297 89.8622 19.0297C89.8622 19.0297 94.2878 16.7976 94.2878 10.4688C94.2878 1.13793 86.7554 0.380859 86.7554 0.380859H64.9453L64.8789 39.297H75.7327V23.641H79.3727C79.8776 23.641 81.2915 23.7921 81.8862 24.1333C82.9449 24.7412 83.1548 25.4182 83.2525 25.6512C83.5539 26.371 83.3741 31.6947 83.3741 31.6947C83.3741 31.6947 83.3741 36.153 83.7987 37.5927C84.2215 39.0342 85.1318 39.297 85.1318 39.297H95.4399C95.4399 39.297 94.5307 37.9525 94.2878 36.9457Z" fill="#C11313"/>
<path d="M193.795 22.3208L197.573 10.3215L201.246 22.3208H193.795ZM205.916 0.380859H192.262L180.273 39.2949H188.349L191.549 30.5254H203.254L206.454 39.2949H217.921L205.916 0.380859Z" fill="#C11313"/>
<path d="M17.0452 16.1514H10.9753V8.59005H16.8022C16.8022 8.59005 19.5918 9.08607 19.4087 12.683C19.2273 16.2894 17.0452 16.1514 17.0452 16.1514ZM17.0452 31.2014H10.9753V23.6381H16.8022C16.8022 23.6381 19.5918 24.136 19.4087 27.7311C19.2273 31.3374 17.0452 31.2014 17.0452 31.2014ZM25.8953 18.596C25.8953 18.596 29.7387 16.0003 29.5604 10.3876C29.2638 1.06414 21.8134 0.37793 21.8134 0.37793H0L0.0189338 39.2494C0.0189338 39.2494 24.4735 39.2196 23.6468 39.2941C22.8216 39.3686 26.3575 39.2399 27.8594 37.2599C28.4528 36.4839 30.8021 34.3339 31.0373 29.2601C31.3638 22.1613 25.8953 18.596 25.8953 18.596Z" fill="#C11313"/>
</svg>
