<svg width="200" height="50" viewBox="0 0 200 50" fill="none" xmlns="http://www.w3.org/2000/svg">
<g clip-path="url(#clip0_914:6099)">
<path d="M198.439 8.66578C186.99 8.66578 180.884 15.5244 180.666 24.3591C179.03 14.7106 171.181 8.43329 162.349 8.43329C153.517 8.43329 145.994 14.7106 144.25 24.2429C144.25 15.7569 138.034 8.43329 129.966 8.43329C126.477 8.43329 123.424 9.82825 120.916 12.3857V0.0634766H112.303V27.6141C112.303 28.5441 112.303 29.1253 112.194 30.404C111.649 36.1003 108.051 39.0063 104.125 39.0063C99.9822 39.0063 96.3843 36.9138 96.2752 30.5203C96.2752 29.3576 96.2752 28.8928 96.2752 28.1953V17.8493H109.686V9.13076H96.0572V0.0634766H87.3345V24.3591C85.6992 15.2919 78.1759 8.54953 69.2353 8.54953C63.4566 8.54953 58.332 11.3395 54.9521 15.7569V8.66578H53.9708C42.7404 8.66578 36.6346 15.2919 36.1986 23.8943C34.563 15.1756 27.8032 8.66578 19.1897 8.66578C14.7193 8.66578 11.2303 10.4095 8.39546 13.3157V0.0634766H0V23.3129C0 25.0568 -1.13043e-07 26.6841 0.109032 28.1953C0.218063 39.0063 7.30513 47.7248 18.2083 47.7248C27.6942 47.7248 34.563 41.215 36.1986 32.4965V46.7948H44.8121V28.8928C44.8121 28.079 44.8121 27.149 44.9211 26.3354C45.0301 20.8718 48.4102 17.6168 53.7528 17.5006C51.8992 20.5229 50.8088 24.2429 50.8088 28.079C50.8088 38.89 59.0953 47.7248 69.2353 47.7248C78.1759 47.7248 85.6992 40.8663 87.3345 31.9153C87.3345 41.3312 94.4217 47.841 103.035 47.841C106.633 47.841 109.795 46.2137 112.303 43.5398V46.7948H120.916V27.2654C120.916 26.8003 120.916 26.4516 120.916 26.1029C121.134 19.8256 124.623 17.1518 128.331 17.1518C132.038 17.1518 135.309 19.8256 135.418 26.1029C135.418 26.6841 135.418 27.0328 135.418 27.6141V46.7948H144.141V32.264C145.775 41.6801 153.299 47.7248 162.24 47.7248C172.379 47.7248 178.05 40.8663 179.575 33.5426H171.181C170.417 36.1003 167.473 40.0525 162.24 40.0525C157.552 40.0525 153.517 36.6813 152.535 31.1015H180.557V46.7948H189.17V28.8928C189.17 28.079 189.17 27.149 189.28 26.3354C189.389 20.7554 192.877 17.5006 198.33 17.5006H199.31V8.66578H198.439ZM18.2083 38.89C12.5387 38.89 8.17739 34.124 8.17739 28.1953C8.17739 22.1504 12.5387 17.5006 18.2083 17.5006C23.8779 17.5006 28.2392 22.2666 28.2392 28.1953C28.2392 34.124 23.8779 38.89 18.2083 38.89ZM69.2353 38.89C63.5655 38.89 59.2043 34.124 59.2043 28.1953C59.2043 22.1504 63.5655 17.5006 69.2353 17.5006C74.905 17.5006 79.2661 22.2666 79.2661 28.1953C79.3752 34.124 74.905 38.89 69.2353 38.89ZM152.971 23.7778C154.389 19.1281 158.097 16.2219 162.349 16.2219C167.8 16.2219 171.072 20.8718 171.726 23.7778H152.971Z" fill="#005CAB"/>
</g>
<defs>
<clipPath id="clip0_914:6099">
<rect width="200" height="50" fill="white"/>
</clipPath>
</defs>
</svg>
