<svg width="250" height="50" viewBox="0 0 250 50" fill="none" xmlns="http://www.w3.org/2000/svg">
<path d="M95.9315 15.8438H90.1179V30.4769C90.1179 34.5477 88.5325 36.6383 85.2558 36.6383C83.9875 36.6383 83.036 36.088 82.402 35.428C81.5564 34.5477 81.1336 33.1175 81.1336 31.0269V15.8438H75.4258V31.4672C75.4258 34.8777 76.1659 37.4083 77.7512 39.0587C79.2309 40.5991 81.028 41.3693 84.0931 41.3693C86.2071 41.3693 88.7439 39.8287 90.2236 37.9585V40.7091H95.9315V15.8438Z" fill="#003985"/>
<path d="M175.311 36.5273C173.092 36.5273 171.189 35.647 171.083 33.7765C170.977 31.9063 171.928 30.586 174.677 30.0357C175.417 29.9257 176.156 29.8157 176.79 29.7057C177.847 29.4857 179.116 29.2657 180.278 28.4955V32.3463C180.278 35.317 177.425 36.5273 175.311 36.5273ZM176.896 15.1826C173.408 15.1826 167.595 15.9528 166.961 22.6642H172.774C172.668 20.0236 175.522 19.8036 176.368 19.8036C176.474 19.8036 176.58 19.8036 176.58 19.8036C177.847 19.8036 178.905 20.2438 179.75 20.9039C180.278 21.344 180.596 22.0041 180.596 22.9943C180.702 24.6447 179.856 25.5249 174.465 26.075C170.237 26.5149 165.27 27.7252 165.27 33.8865C165.27 35.867 165.904 37.6273 167.172 38.9476C168.652 40.4881 170.977 41.3681 173.514 41.3681C177.002 41.3681 179.011 40.4881 180.702 38.3976L181.018 40.7081H186.621V39.8278C185.881 39.2778 186.093 36.7473 186.093 36.7473V22.5542C186.093 20.6839 185.457 19.1435 184.295 17.9332C182.709 16.1728 180.278 15.1826 176.896 15.1826Z" fill="#003985"/>
<path d="M131.658 36.5273C130.073 36.5273 129.016 35.977 127.959 34.8768C126.585 33.4465 125.845 31.136 125.845 28.2755C125.845 25.6349 126.691 23.2143 128.064 21.674C129.122 20.5738 130.073 20.0236 131.658 20.0236C135.041 20.0236 136.838 22.2241 137.366 26.4049C137.471 27.0652 137.471 29.2657 137.471 29.7057C137.049 34.1068 135.252 36.5273 131.658 36.5273ZM130.919 15.1826C124.048 15.1826 120.031 20.2438 120.031 28.3855C120.031 32.5663 121.3 36.1971 123.519 38.5075C125.316 40.3781 127.325 41.2581 130.073 41.2581C133.244 41.2581 135.464 39.7178 137.261 37.5173V47.3094H143.074V15.7327H137.577V18.8134C136.098 16.833 133.983 15.1826 130.919 15.1826Z" fill="#003985"/>
<path d="M72.0444 7.5918H65.8082V20.2445H52.7015V7.5918H46.3594V40.7087H52.7015V25.9657H65.8082V40.7087H72.0444V7.5918Z" fill="#003985"/>
<path d="M108.511 15.1826H108.299C103.86 15.2926 98.5751 17.0531 98.5751 22.4442C98.5751 27.5052 101.957 29.0455 105.974 29.9257C106.503 30.0357 107.031 30.1457 107.56 30.2557C110.519 30.916 112.844 31.5763 112.844 33.5565C112.844 35.6471 111.259 36.417 108.722 36.5273C108.616 36.5273 108.616 36.5273 108.511 36.5273C106.185 36.5273 104.283 35.427 103.966 33.2265H98.1523C98.4694 39.3878 104.177 41.2581 108.405 41.2581C108.511 41.2581 108.616 41.2581 108.722 41.2581C112.95 41.1481 114.853 40.1578 116.65 38.1775C117.918 36.8573 118.658 35.0968 118.658 33.0065C118.658 28.1655 115.17 26.5149 111.153 25.5249L109.885 25.1948C106.714 24.5347 104.177 23.8744 104.389 22.0041C104.494 20.1336 106.503 19.6936 107.982 19.6936C108.088 19.6936 108.194 19.6936 108.299 19.6936C109.674 19.6936 110.837 20.0236 111.682 21.784H117.707C117.072 17.2731 112.95 15.1826 108.511 15.1826Z" fill="#003985"/>
<path d="M166.855 15.8438H160.83L155.757 34.988L150.366 15.8438H144.129L152.479 40.709H158.61L166.855 15.8438Z" fill="#003985"/>
<path d="M201.104 14.9639C200.682 14.9639 200.259 14.9638 199.835 15.0739C197.933 15.4039 195.713 17.6044 194.762 20.2449V15.954H189.266V40.8192H195.079V28.8269C195.079 26.0761 195.291 24.0958 196.453 22.4455C197.299 21.2351 198.885 20.1349 200.47 20.1349H200.576C202.161 20.1349 203.113 20.575 203.113 20.575V15.1839C203.007 15.1839 202.161 14.9639 201.104 14.9639Z" fill="#003985"/>
<path d="M217.276 15.1826C214.422 15.1826 212.308 16.723 210.617 19.5835V15.8427H205.121V40.7081H210.829V26.075C210.829 24.3145 211.145 22.6642 212.308 21.564C213.26 20.5738 214.528 20.0236 216.113 20.0236H216.219C218.861 20.0236 219.813 21.674 219.918 25.1948V40.7081H225.732V23.7644C225.732 21.1239 224.992 19.0334 223.618 17.6032C222.033 16.0628 219.918 15.1826 217.276 15.1826Z" fill="#003985"/>
<path d="M29.6599 15.9534H24.2692V22.6648C24.2692 23.9851 24.2692 23.9851 20.5697 23.9851C16.6589 23.9851 16.6589 23.9851 16.6589 22.6648V15.9534H11.3739V38.5082H16.6589V30.3664C16.6589 29.046 16.6589 29.046 20.5697 29.046C24.375 29.046 24.2692 29.046 24.2692 30.3664V38.5082H29.6599V15.9534ZM20.5697 42.359C16.0247 42.359 14.545 42.359 12.2195 41.699C11.4797 41.3686 9.99985 41.0386 9.04856 39.3884C7.14596 36.0876 7.14596 29.8164 7.14596 26.8458C7.14596 23.8751 7.14596 18.594 9.04856 15.2933C10.1055 13.6428 11.4797 13.2028 12.2195 12.8727C14.4392 12.2126 16.0247 12.2126 20.5697 12.2126C25.0092 12.2126 26.4888 12.2126 28.8143 12.8727C29.5542 13.2028 30.9283 13.5328 31.8797 15.2933C33.888 18.594 33.888 24.2051 33.888 27.1758C33.888 30.0364 33.888 35.9776 31.8797 39.3884C30.9283 41.0386 29.5542 41.4786 28.8143 41.699C26.4888 42.359 25.0092 42.359 20.5697 42.359ZM20.4641 0C18.4558 0 17.1874 0.330072 16.6589 0.440094C16.976 3.08066 16.8703 5.1711 16.6589 5.72122C16.1304 7.26156 14.0164 8.14174 12.3252 8.14174C11.691 8.14174 11.1625 8.03172 10.7397 7.81166C9.04856 6.71142 9.47133 3.52074 9.47133 1.43031C9.47133 1.43031 7.04026 2.09044 5.56046 2.64056C4.29209 3.08066 2.49519 4.07086 2.49519 4.07086C2.07239 6.71142 2.49519 10.6723 5.03198 11.9925C3.12939 13.973 2.49519 16.2834 1.6496 20.6844C1.22679 23.1049 1.12109 25.0853 1.12109 26.7358V26.8458C1.12109 27.8358 1.12109 28.606 1.12109 29.4864C1.33249 32.5668 1.33249 34.2174 1.96669 36.968C3.02368 40.1584 3.55219 41.699 5.56046 43.8992C9.25994 47.8602 15.0735 48.1902 18.9843 48.1902C19.5128 48.1902 19.9356 48.1902 20.3584 48.1902C20.9926 48.1902 21.6267 48.1902 22.3667 48.1902C26.3833 48.1902 31.8797 47.8602 35.2621 43.8992C37.1645 41.699 37.6931 40.1584 38.6445 36.968C39.4899 34.2174 39.3843 32.5668 39.7013 29.4864C39.807 27.1758 39.9129 24.5352 39.1729 20.6844C38.3272 16.3935 37.6931 13.973 35.7905 11.9925C38.3272 10.6723 38.6445 6.71142 38.3272 4.07086C38.3272 4.07086 36.4248 3.08066 35.1564 2.53053C33.7821 1.98042 31.4566 1.43031 31.4566 1.43031C31.4566 3.52074 31.6683 6.71142 30.1883 7.81166C29.7656 8.03172 29.2372 8.14174 28.6029 8.14174C26.9118 8.14174 24.692 7.26156 24.2692 5.72122C24.0578 5.06108 23.8465 2.97064 24.2692 0.440094C23.8465 0.330072 22.3667 0 20.4641 0Z" fill="#003985"/>
<path d="M237.569 36.5273C235.349 36.5273 233.447 35.647 233.341 33.7765C233.235 31.9063 234.187 30.586 236.935 30.0357C237.675 29.9257 238.414 29.8157 239.049 29.7057C240.106 29.4857 241.373 29.2657 242.536 28.4955V32.3463C242.536 35.317 239.682 36.5273 237.569 36.5273ZM238.731 15.1826C235.243 15.1826 229.43 15.9528 228.796 22.6642H234.609C234.503 20.0236 237.357 19.8036 238.203 19.8036C238.309 19.8036 238.414 19.8036 238.414 19.8036C239.682 19.8036 241.163 20.2438 242.008 20.9039C242.536 21.344 242.854 22.0041 242.854 22.9943C242.96 24.6447 242.114 25.5249 236.723 26.075C232.496 26.5149 227.527 27.7252 227.527 33.9965C227.527 35.977 228.162 37.7375 229.43 39.0578C230.909 40.5981 233.235 41.4783 235.772 41.4783C239.26 41.4783 241.163 40.5981 242.96 38.5075L243.276 40.8181H248.879V39.9378C248.139 39.3878 248.35 36.8573 248.35 36.8573V22.5542C248.35 20.6839 247.716 19.1435 246.554 17.9332C244.861 16.2828 242.114 15.1826 238.731 15.1826Z" fill="#003985"/>
</svg>
