<svg width="200" height="50" viewBox="0 0 200 50" fill="none" xmlns="http://www.w3.org/2000/svg">
<path d="M53.503 0H36.8939C36.0565 0 35.4983 0.812504 35.4983 2.03125V40.625H20.0058V22.3438C20.0058 21.125 19.4475 20.3125 18.6101 20.3125H2.00117C1.16375 20.3125 0.605469 21.125 0.605469 22.3438V46.3127C0.605469 47.5314 1.16375 48.3438 2.00117 48.3438H6.18831H18.6101H36.8939H50.7114H53.503C54.3403 48.3438 54.8986 47.5314 54.8986 46.3127V2.03125C54.8986 0.812504 54.2008 0 53.503 0Z" fill="#007BC3"/>
<path d="M112.124 0H95.5153C94.6777 0 94.1194 0.812504 94.1194 2.03125V40.625H78.6272V2.03125C78.6272 0.812504 78.0688 0 77.2312 0H60.6225C59.785 0 59.2266 0.812504 59.2266 2.03125V46.3127C59.2266 47.5314 59.785 48.3438 60.6225 48.3438H64.8096H77.2312H95.5153H109.333H112.124C112.962 48.3438 113.52 47.5314 113.52 46.3127V2.03125C113.52 0.812504 112.822 0 112.124 0Z" fill="#007BC3"/>
<path d="M156.365 24.172L172.277 3.85938C173.532 2.23438 172.835 0 171.997 0H152.737L137.244 16.8594V2.03125C137.244 0.812504 136.686 0 135.849 0H119.239C118.402 0 117.844 0.812504 117.844 2.03125V46.3127C117.844 47.5314 118.402 48.3438 119.239 48.3438H135.849C136.686 48.3438 137.244 47.5314 137.244 46.3127V32.9064L152.737 48.3438H172.137C172.974 48.3438 173.952 46.7188 172.416 44.8909L156.365 24.172Z" fill="#007BC3"/>
<path d="M197.263 0H180.653C179.816 0 179.258 0.812504 179.258 2.03125V46.3127C179.258 47.5314 179.816 48.3438 180.653 48.3438H197.263C198.1 48.3438 198.658 47.5314 198.658 46.3127V2.03125C198.658 0.812504 197.96 0 197.263 0Z" fill="#007BC3"/>
</svg>
