<svg width="200" height="50" viewBox="0 0 200 50" fill="none" xmlns="http://www.w3.org/2000/svg">
<path d="M0 49.744H13.8284V33.3867H20.9989C35.0832 33.3867 39.1806 23.5275 39.1806 16.5813C39.1806 9.63507 35.0832 0 20.9989 0H0V49.744ZM13.8284 10.9795H17.9257C23.8158 10.9795 24.84 14.1165 24.84 16.5813C24.84 19.046 24.0716 22.4072 17.9257 22.4072H13.8284V10.9795ZM45.5827 49.744H59.667V30.922H74.0078V19.4943H59.667V12.0999H75.5442V0H45.5827V49.744ZM77.0806 49.744H92.1895L94.7505 41.2292H111.908L114.725 49.744H129.577L111.908 0H94.7505L77.0806 49.744ZM103.457 11.8758L109.091 30.2497H97.567L103.457 11.8758ZM133.675 49.744H147.503V30.922H162.1V19.4943H147.503V12.0999H163.636V0H133.675V49.744ZM170.038 49.744H183.867V30.922H198.463V19.4943H183.867V12.0999H200V0H170.038V49.744Z" fill="#ED1C24"/>
</svg>
