<svg width="200" height="30" viewBox="0 0 200 30" fill="none" xmlns="http://www.w3.org/2000/svg">
<path d="M89.0227 0.300024H74.9921L78.1829 3.00643V18.337L61.2573 0.300024H48.9382L52.0233 3.00643V26.3363L48.9382 29.0084H62.9478C62.9478 29.0084 59.8415 26.3021 59.757 26.3021C59.6724 26.3021 59.757 10.1151 59.757 10.1151L78.1829 29.0084H89.0227L85.9378 26.3363V3.00643L89.0227 0.300024ZM127.121 14.5858H113.196L116.281 17.1038V21.4202C114.274 22.9105 111.569 24.0068 108.738 24.0068C102.377 24.2124 98.0243 19.6046 97.8131 14.8084C97.8976 10.1493 102.758 5.62721 108.738 5.61006C113.323 6.02117 116.112 6.17534 121.162 9.19008V0.300024L118.922 2.18424C115.922 0.556962 112.478 0.0430735 108.801 0.00881512C98.5102 -0.0597015 90.2694 6.48367 90.0159 15.014C89.7622 23.5614 98.447 29.6937 108.801 29.6937C114.823 29.6937 120.571 28.2034 124.036 24.3837L124.1 17.0696L126.995 14.7056L127.121 14.5858ZM43.6345 3.02356L46.7196 0.351398L32.6465 0.334275L35.8584 3.04069L35.8796 26.3363L32.6888 29.0084H46.7406C45.6841 28.0835 44.5853 27.21 43.55 26.285L43.6345 3.02356ZM26.8145 13.8492C22.9055 11.8451 20.0951 12.4103 13.8827 11.2798C9.69889 10.509 7.31114 7.46002 12.9741 5.61006C16.6719 4.54806 25.3143 6.53505 29.0967 8.24796L29.1178 0.0430861L26.8357 1.17361C23.6451 0.368536 20.095 0.0944607 16.4606 0.00881512C10.6709 -0.111089 6.97306 1.00232 4.24722 2.73236C1.5214 4.61657 0.105652 6.60356 0 8.6762V9.12155C0.0845218 10.509 0.718437 11.9308 1.94401 13.3867C5.13471 15.9732 7.54359 16.9667 12.4881 17.1038C17.3693 17.2408 20.6232 17.8061 21.8278 20.6152C21.1939 23.4758 18.299 24.6576 13.2276 24.1268C9.33967 23.9211 5.0713 21.9855 0.295826 19.0737L0.211304 28.9914L3.25411 27.1757C6.08557 28.3234 9.12836 29.2484 12.5938 29.6764C17.0945 29.8992 21.3629 29.2313 25.3777 27.3128C30.7872 24.161 31.7802 17.6004 26.8145 13.8492ZM195.922 26.5247L188.568 18.5426C193.703 17.1038 195.689 15.0311 195.922 9.87525C195.753 2.9893 191.843 1.27639 185.081 0.300024H161.162L164.416 2.83513L164.395 26.3193L161.183 28.9914H175.109L172.15 26.3193C172.066 26.3193 172.15 18.5426 172.15 18.5426H178.383L179.905 20.1356L186.033 26.4562L183.983 28.923L198.373 28.9914H200L198.373 27.998L195.922 26.5247ZM182.926 13.3011H172.107V6.55218H183.244C188.907 6.63782 189.625 13.1983 182.926 13.3011Z" fill="#CC2229"/>
<path d="M126.781 0.299954C126.781 0.299954 126.845 0.37088 126.95 0.477266C127.584 1.08013 129.888 3.08375 129.888 3.08375V27.2337L126.95 29.858L126.781 29.9998H157.97V21.7371L154.759 23.457H137.6V18.3326L151.864 18.2794L154.759 20.1412V10.0344L152.349 11.8076H137.6V6.75412H154.738L157.949 8.75774V0.282227L126.781 0.299954Z" fill="#CC2229"/>
</svg>
