<svg width="200" height="50" viewBox="0 0 200 50" fill="none" xmlns="http://www.w3.org/2000/svg">
<path d="M2.12109 2.21773C2.12109 1.5589 2.45487 1.22949 3.12242 1.22949H36.225C36.8925 1.22949 37.2263 1.5589 37.2263 2.21773V7.03538C37.2263 7.61184 36.9123 7.90008 36.2839 7.90008H24.9749C24.7393 7.90008 24.5626 7.94126 24.4447 8.02361C24.3662 8.10597 24.327 8.27068 24.327 8.51773V46.009C24.327 46.709 24.0324 47.059 23.4434 47.059H16.4341C15.8845 47.059 15.6095 46.7295 15.6095 46.0706V8.64126C15.6095 8.35302 15.5507 8.16773 15.4328 8.08538C15.3543 7.96184 15.1972 7.90008 14.9617 7.90008H3.12242C2.76901 7.90008 2.51377 7.83831 2.3567 7.71479C2.19964 7.59126 2.12109 7.36479 2.12109 7.03538V2.21773ZM54.7976 43.6619C52.0488 46.3383 48.8288 47.6766 45.1377 47.6766C42.1533 47.6766 39.7777 46.853 38.0105 45.2059C36.2829 43.5177 35.4189 41.3354 35.4189 38.659C35.4189 35.2413 36.8719 32.5235 39.7776 30.5059C42.6834 28.4883 46.7476 27.3766 51.9703 27.1706L54.9153 26.9854C55.5435 26.903 55.8577 26.5942 55.8577 26.059V24.6383C55.8577 22.8266 55.3276 21.4266 54.2674 20.4383C53.2464 19.409 51.8328 18.8942 50.0264 18.8942C47.0422 18.8942 44.745 20.253 43.1351 22.9706C43.0172 23.1354 42.8994 23.2795 42.7817 23.403C42.7031 23.4854 42.5853 23.5266 42.4282 23.5266C42.2319 23.5266 42.0748 23.5059 41.957 23.4648L37.0092 22.1677C36.6952 22.0854 36.5381 21.9001 36.5381 21.6119C36.5381 21.4059 36.6166 21.1383 36.7737 20.809C37.7947 18.503 39.4635 16.753 41.7803 15.559C44.1364 14.3236 47.0029 13.706 50.38 13.706C54.7778 13.706 57.9978 14.6119 60.0397 16.4235C62.1209 18.2354 63.1615 20.7883 63.1615 24.0824V45.8236C63.1615 46.2766 63.083 46.6059 62.9259 46.8119C62.8082 46.9766 62.5528 47.059 62.1602 47.059H57.1536C56.8002 47.059 56.5449 46.9354 56.3879 46.6883C56.2308 46.4413 56.1129 46.0706 56.0344 45.5766L55.9756 43.7235C55.9362 43.353 55.7989 43.1677 55.5633 43.1677C55.4454 43.1677 55.1902 43.3324 54.7976 43.6619ZM55.8577 32.1119C55.8577 31.7413 55.7792 31.4736 55.6221 31.309C55.5043 31.1442 55.2883 31.0619 54.9743 31.0619L52.5593 31.2472C49.8106 31.453 47.5133 32.1119 45.6678 33.2236C43.8614 34.2942 42.9584 35.7766 42.9584 37.6706C42.9584 39.0706 43.4295 40.1824 44.372 41.0059C45.3536 41.8295 46.6495 42.2413 48.2594 42.2413C50.3014 42.2413 52.088 41.5824 53.6194 40.2648C55.1116 39.0295 55.8577 37.7736 55.8577 36.4972V32.1119ZM99.7754 45.7619C99.8933 45.9266 99.9521 46.1119 99.9521 46.3177C99.9521 46.8119 99.6577 47.059 99.0687 47.059H92.5895C91.9613 47.059 91.49 46.6883 91.1758 45.9472L84.1078 32.1119C83.9899 31.7824 83.8524 31.6177 83.6954 31.6177C83.5776 31.6177 83.4205 31.7206 83.2242 31.9266L78.3353 36.9913C77.9819 37.2795 77.8053 37.753 77.8053 38.4119V45.7001C77.8053 46.2354 77.7071 46.6059 77.5107 46.8119C77.3144 46.9766 76.961 47.059 76.4506 47.059H71.326C70.8941 47.059 70.58 46.9766 70.3837 46.8119C70.2266 46.6472 70.148 46.359 70.148 45.9472V2.27949C70.148 1.57949 70.4426 1.22949 71.0316 1.22949H76.9806C77.5304 1.22949 77.8053 1.5589 77.8053 2.21773V28.7148C77.8053 29.0442 77.8838 29.209 78.0409 29.209C78.198 29.209 78.3551 29.1059 78.512 28.9001L90.7635 15.1883C91.3133 14.6119 91.8042 14.3236 92.2361 14.3236H97.5961C98.1851 14.3236 98.4797 14.5295 98.4797 14.9413C98.4797 15.1472 98.3618 15.4148 98.1263 15.7442L89.4678 24.8854C89.2713 25.1736 89.1732 25.4206 89.1732 25.6266C89.1732 25.8324 89.2517 26.1001 89.4088 26.4295L99.7754 45.7619ZM123.112 22.4148C122.327 21.303 121.306 20.4177 120.049 19.759C118.793 19.1001 117.34 18.7706 115.69 18.7706C113.963 18.7706 112.529 19.1413 111.391 19.8824C110.291 20.6236 109.741 21.5913 109.741 22.7854C109.741 23.4854 110.016 24.1236 110.566 24.7001C111.116 25.2354 112.117 25.709 113.57 26.1206L120.579 28.0972C123.524 28.8795 125.684 30.0736 127.058 31.6795C128.433 33.2854 129.12 35.2001 129.12 37.4235C129.12 39.5236 128.531 41.3559 127.353 42.9206C126.214 44.4442 124.604 45.6177 122.523 46.4413C120.481 47.2648 118.145 47.6766 115.514 47.6766C112.255 47.6766 109.408 47.059 106.973 45.8236C104.538 44.5472 102.811 42.9001 101.79 40.8824C101.633 40.553 101.554 40.3266 101.554 40.203C101.554 39.9559 101.672 39.7501 101.908 39.5854L105.383 37.7324C105.658 37.5677 105.893 37.4854 106.089 37.4854C106.247 37.4854 106.423 37.5883 106.62 37.7942C107.562 39.1942 108.701 40.3059 110.036 41.1295C111.41 41.953 113.177 42.3648 115.337 42.3648C117.34 42.3648 118.969 42.0148 120.226 41.3148C121.522 40.5735 122.169 39.5648 122.169 38.2883C122.169 37.4235 121.816 36.703 121.109 36.1266C120.442 35.509 119.264 34.9735 117.575 34.5206L111.567 33.0383C108.583 32.2972 106.384 31.1854 104.97 29.703C103.596 28.2206 102.909 26.3266 102.909 24.0206C102.909 22.003 103.419 20.2119 104.44 18.6472C105.5 17.0824 106.993 15.8677 108.917 15.003C110.88 14.1383 113.158 13.706 115.749 13.706C118.537 13.706 121.011 14.2619 123.171 15.3736C125.331 16.4442 126.921 17.8236 127.942 19.5119C128.138 19.8413 128.236 20.109 128.236 20.3148C128.236 20.5206 128.138 20.6854 127.942 20.809L124.29 22.7236C124.054 22.8059 123.917 22.8472 123.878 22.8472C123.564 22.8472 123.308 22.703 123.112 22.4148ZM146.992 41.809C149.387 41.809 151.881 40.3883 154.471 37.5472V15.559C154.471 14.7354 154.923 14.3236 155.826 14.3236H161.128C161.834 14.3236 162.188 14.7148 162.188 15.4972L162.07 46.0706C162.07 46.7295 161.796 47.059 161.246 47.059H155.473C154.923 47.059 154.649 46.7501 154.649 46.1324V42.859C154.649 42.653 154.589 42.5295 154.471 42.4883C154.355 42.4472 154.217 42.509 154.059 42.6735C152.253 44.4854 150.526 45.7824 148.877 46.5648C147.266 47.3059 145.539 47.6766 143.693 47.6766C141.022 47.6766 138.824 46.7913 137.097 45.0206C135.408 43.2501 134.563 40.8824 134.563 37.9177V15.6206C134.563 14.7559 134.976 14.3236 135.8 14.3236H141.22C141.572 14.3236 141.828 14.4266 141.985 14.6324C142.142 14.7972 142.221 15.0854 142.221 15.4972V36.559C142.221 38.1648 142.653 39.4413 143.516 40.3883C144.38 41.3354 145.539 41.809 146.992 41.809ZM170.605 47.059C170.212 47.059 169.938 46.9766 169.78 46.8119C169.622 46.6472 169.544 46.359 169.544 45.9472V15.3736C169.544 14.6736 169.82 14.3236 170.369 14.3236H176.259C176.769 14.3236 177.025 14.6324 177.025 15.2501V18.4619C177.025 18.709 177.083 18.853 177.201 18.8942C177.319 18.9354 177.477 18.8736 177.673 18.709C179.518 17.0206 181.226 15.7648 182.797 14.9413C184.406 14.1177 186.135 13.706 187.98 13.706C190.886 13.706 193.164 14.5913 194.813 16.3619C196.502 18.0913 197.346 20.3972 197.346 23.2795V45.7619C197.346 46.6266 196.934 47.059 196.108 47.059H190.69C190.298 47.059 190.022 46.9766 189.865 46.8119C189.747 46.6472 189.689 46.359 189.689 45.9472V24.7001C189.689 23.0942 189.257 21.859 188.393 20.9942C187.568 20.0883 186.351 19.6354 184.74 19.6354C183.367 19.6354 182.11 19.9648 180.971 20.6236C179.871 21.2824 178.616 22.353 177.201 23.8354V45.8236C177.201 46.2766 177.103 46.6059 176.907 46.8119C176.711 46.9766 176.357 47.059 175.846 47.059H170.605Z" fill="#666666"/>
</svg>
